<mxfile host="cryptpad-sandbox.private.coffee" version="21.8.2" type="embed"><diagram id="_w5quBjUEY321jHu5cvN" name="Page-1"><mxGraphModel dx="793" dy="413" grid="1" gridSize="10" guides="1" tooltips="1" connect="1" arrows="1" fold="1" page="1" pageScale="1" pageWidth="827" pageHeight="1169" math="0" shadow="0"><root><mxCell id="0"/><mxCell id="1" parent="0"/><mxCell id="9" value="&lt;font style=&quot;font-size: 12px;&quot; face=&quot;Helvetica&quot;&gt;-X1:47&lt;/font&gt;" style="text;html=1;strokeColor=none;fillColor=none;align=center;verticalAlign=middle;whiteSpace=wrap;rounded=0;" parent="1" vertex="1"><mxGeometry x="1466.25" y="332" width="43.75" height="20" as="geometry"/></mxCell><mxCell id="10" value="&lt;font style=&quot;font-size: 12px;&quot; face=&quot;Helvetica&quot;&gt;-X1:46&lt;/font&gt;" style="text;html=1;strokeColor=none;fillColor=none;align=center;verticalAlign=middle;whiteSpace=wrap;rounded=0;" parent="1" vertex="1"><mxGeometry x="1466.25" y="352" width="43.75" height="20" as="geometry"/></mxCell><mxCell id="11" value="&lt;font style=&quot;font-size: 12px;&quot; face=&quot;Helvetica&quot;&gt;-X1:45&lt;/font&gt;" style="text;html=1;strokeColor=none;fillColor=none;align=center;verticalAlign=middle;whiteSpace=wrap;rounded=0;" parent="1" vertex="1"><mxGeometry x="1466.25" y="372" width="43.75" height="20" as="geometry"/></mxCell><mxCell id="12" value="&lt;font style=&quot;font-size: 12px;&quot; face=&quot;Helvetica&quot;&gt;-X1:44&lt;/font&gt;" style="text;html=1;strokeColor=none;fillColor=none;align=center;verticalAlign=middle;whiteSpace=wrap;rounded=0;" parent="1" vertex="1"><mxGeometry x="1466.25" y="392" width="43.75" height="20" as="geometry"/></mxCell><mxCell id="13" value="&lt;font style=&quot;font-size: 12px;&quot; face=&quot;Helvetica&quot;&gt;-X1:43&lt;/font&gt;" style="text;html=1;strokeColor=none;fillColor=none;align=center;verticalAlign=middle;whiteSpace=wrap;rounded=0;" parent="1" vertex="1"><mxGeometry x="1466.25" y="412" width="43.75" height="20" as="geometry"/></mxCell><mxCell id="14" value="&lt;font style=&quot;font-size: 12px;&quot; face=&quot;Helvetica&quot;&gt;-X1:42&lt;/font&gt;" style="text;html=1;strokeColor=none;fillColor=none;align=center;verticalAlign=middle;whiteSpace=wrap;rounded=0;" parent="1" vertex="1"><mxGeometry x="1466.25" y="432" width="43.75" height="20" as="geometry"/></mxCell><mxCell id="15" value="&lt;font style=&quot;font-size: 12px;&quot; face=&quot;Helvetica&quot;&gt;-X1:48&lt;/font&gt;" style="text;html=1;strokeColor=none;fillColor=none;align=center;verticalAlign=middle;whiteSpace=wrap;rounded=0;" parent="1" vertex="1"><mxGeometry x="1466.25" y="452" width="43.75" height="20" as="geometry"/></mxCell><mxCell id="KrXppkfDbPsKSOxk7Zb5-155" value="&lt;font style=&quot;font-size: 12px;&quot; face=&quot;Helvetica&quot;&gt;:2&lt;/font&gt;" style="text;html=1;strokeColor=none;fillColor=none;align=center;verticalAlign=middle;whiteSpace=wrap;rounded=0;" parent="1" vertex="1"><mxGeometry x="377" y="955" width="13.75" height="20" as="geometry"/></mxCell><mxCell id="KrXppkfDbPsKSOxk7Zb5-154" value="&lt;font style=&quot;font-size: 12px;&quot; face=&quot;Helvetica&quot;&gt;:1&lt;/font&gt;" style="text;html=1;strokeColor=none;fillColor=none;align=center;verticalAlign=middle;whiteSpace=wrap;rounded=0;" parent="1" vertex="1"><mxGeometry x="350" y="955" width="13.75" height="20" as="geometry"/></mxCell><mxCell id="KrXppkfDbPsKSOxk7Zb5-153" value="&lt;font style=&quot;font-size: 12px;&quot; face=&quot;Helvetica&quot;&gt;:4&lt;/font&gt;" style="text;html=1;strokeColor=none;fillColor=none;align=center;verticalAlign=middle;whiteSpace=wrap;rounded=0;" parent="1" vertex="1"><mxGeometry x="321.87" y="955" width="13.75" height="20" as="geometry"/></mxCell><mxCell id="KrXppkfDbPsKSOxk7Zb5-152" value="&lt;font style=&quot;font-size: 12px;&quot; face=&quot;Helvetica&quot;&gt;:5&lt;/font&gt;" style="text;html=1;strokeColor=none;fillColor=none;align=center;verticalAlign=middle;whiteSpace=wrap;rounded=0;" parent="1" vertex="1"><mxGeometry x="290.63" y="955" width="13.75" height="20" as="geometry"/></mxCell><mxCell id="KrXppkfDbPsKSOxk7Zb5-151" value="&lt;font style=&quot;font-size: 12px;&quot; face=&quot;Helvetica&quot;&gt;-X6:3&lt;/font&gt;" style="text;html=1;strokeColor=none;fillColor=none;align=center;verticalAlign=middle;whiteSpace=wrap;rounded=0;" parent="1" vertex="1"><mxGeometry x="225" y="950" width="62.5" height="30" as="geometry"/></mxCell><mxCell id="KrXppkfDbPsKSOxk7Zb5-1" value="" style="rounded=0;whiteSpace=wrap;html=1;fillColor=none;dashed=1;" parent="1" vertex="1"><mxGeometry x="223.75" y="240" width="1190" height="300" as="geometry"/></mxCell><mxCell id="W5E6wQUxxrBwjv3_R4AU-96" value="Enable Emergency Stop&amp;nbsp; &amp;nbsp; &amp;nbsp;-K1:42" style="text;html=1;align=center;verticalAlign=middle;resizable=0;points=[];autosize=1;strokeColor=none;fillColor=none;" parent="1" vertex="1"><mxGeometry x="454" y="140" width="200" height="30" as="geometry"/></mxCell><mxCell id="KrXppkfDbPsKSOxk7Zb5-2" value="" style="rounded=0;whiteSpace=wrap;html=1;" parent="1" vertex="1"><mxGeometry x="279.38" y="320" width="96.25" height="160" as="geometry"/></mxCell><mxCell id="KrXppkfDbPsKSOxk7Zb5-4" value="+&amp;nbsp; &amp;nbsp; &amp;nbsp;-&lt;br&gt;Emergency&lt;br&gt;Stop ok" style="text;html=1;strokeColor=none;fillColor=none;align=center;verticalAlign=middle;whiteSpace=wrap;rounded=0;" parent="1" vertex="1"><mxGeometry x="292.5" y="330" width="70" height="40" as="geometry"/></mxCell><mxCell id="KrXppkfDbPsKSOxk7Zb5-5" value="Driver BreakoutBoard" style="text;html=1;strokeColor=none;fillColor=none;align=center;verticalAlign=middle;whiteSpace=wrap;rounded=0;rotation=270;" parent="1" vertex="1"><mxGeometry x="213.13" y="375" width="118.75" height="30" as="geometry"/></mxCell><mxCell id="KrXppkfDbPsKSOxk7Zb5-6" value="" style="rounded=0;whiteSpace=wrap;html=1;" parent="1" vertex="1"><mxGeometry x="277.5" y="520" width="96.25" height="20" as="geometry"/></mxCell><mxCell id="KrXppkfDbPsKSOxk7Zb5-7" value="1B&amp;nbsp; 1A&amp;nbsp; 2B&amp;nbsp; 2A" style="text;html=1;strokeColor=none;fillColor=none;align=center;verticalAlign=middle;whiteSpace=wrap;rounded=0;" parent="1" vertex="1"><mxGeometry x="279.38" y="515" width="90" height="30" as="geometry"/></mxCell><mxCell id="KrXppkfDbPsKSOxk7Zb5-8" value="X" style="text;html=1;strokeColor=none;fillColor=none;align=center;verticalAlign=middle;whiteSpace=wrap;rounded=0;" parent="1" vertex="1"><mxGeometry x="295" y="490" width="60" height="30" as="geometry"/></mxCell><mxCell id="KrXppkfDbPsKSOxk7Zb5-9" value="" style="rounded=0;whiteSpace=wrap;html=1;fillColor=none;" parent="1" vertex="1"><mxGeometry x="293.75" y="325" width="70" height="50" as="geometry"/></mxCell><mxCell id="KrXppkfDbPsKSOxk7Zb5-10" value="" style="rounded=0;whiteSpace=wrap;html=1;" parent="1" vertex="1"><mxGeometry x="411.25" y="320" width="96.25" height="160" as="geometry"/></mxCell><mxCell id="KrXppkfDbPsKSOxk7Zb5-11" value="+&amp;nbsp; &amp;nbsp; &amp;nbsp;-&lt;br&gt;Emergency&lt;br&gt;Stop ok" style="text;html=1;strokeColor=none;fillColor=none;align=center;verticalAlign=middle;whiteSpace=wrap;rounded=0;" parent="1" vertex="1"><mxGeometry x="424.37" y="330" width="70" height="40" as="geometry"/></mxCell><mxCell id="KrXppkfDbPsKSOxk7Zb5-12" value="Driver BreakoutBoard" style="text;html=1;strokeColor=none;fillColor=none;align=center;verticalAlign=middle;whiteSpace=wrap;rounded=0;rotation=270;" parent="1" vertex="1"><mxGeometry x="345" y="375" width="118.75" height="30" as="geometry"/></mxCell><mxCell id="KrXppkfDbPsKSOxk7Zb5-13" value="" style="rounded=0;whiteSpace=wrap;html=1;" parent="1" vertex="1"><mxGeometry x="409.37" y="520" width="96.25" height="20" as="geometry"/></mxCell><mxCell id="KrXppkfDbPsKSOxk7Zb5-14" value="1B&amp;nbsp; 1A&amp;nbsp; 2B&amp;nbsp; 2A" style="text;html=1;strokeColor=none;fillColor=none;align=center;verticalAlign=middle;whiteSpace=wrap;rounded=0;" parent="1" vertex="1"><mxGeometry x="411.25" y="515" width="90" height="30" as="geometry"/></mxCell><mxCell id="KrXppkfDbPsKSOxk7Zb5-15" value="Y" style="text;html=1;strokeColor=none;fillColor=none;align=center;verticalAlign=middle;whiteSpace=wrap;rounded=0;" parent="1" vertex="1"><mxGeometry x="426.87" y="490" width="60" height="30" as="geometry"/></mxCell><mxCell id="KrXppkfDbPsKSOxk7Zb5-16" value="" style="rounded=0;whiteSpace=wrap;html=1;fillColor=none;" parent="1" vertex="1"><mxGeometry x="425.62" y="325" width="70" height="50" as="geometry"/></mxCell><mxCell id="KrXppkfDbPsKSOxk7Zb5-17" value="" style="rounded=0;whiteSpace=wrap;html=1;" parent="1" vertex="1"><mxGeometry x="541.25" y="320" width="96.25" height="160" as="geometry"/></mxCell><mxCell id="KrXppkfDbPsKSOxk7Zb5-18" value="+&amp;nbsp; &amp;nbsp; &amp;nbsp;-&lt;br&gt;Emergency&lt;br&gt;Stop ok" style="text;html=1;strokeColor=none;fillColor=none;align=center;verticalAlign=middle;whiteSpace=wrap;rounded=0;" parent="1" vertex="1"><mxGeometry x="554.37" y="330" width="70" height="40" as="geometry"/></mxCell><mxCell id="KrXppkfDbPsKSOxk7Zb5-19" value="Driver BreakoutBoard" style="text;html=1;strokeColor=none;fillColor=none;align=center;verticalAlign=middle;whiteSpace=wrap;rounded=0;rotation=270;" parent="1" vertex="1"><mxGeometry x="475" y="375" width="118.75" height="30" as="geometry"/></mxCell><mxCell id="KrXppkfDbPsKSOxk7Zb5-20" value="" style="rounded=0;whiteSpace=wrap;html=1;" parent="1" vertex="1"><mxGeometry x="539.37" y="520" width="96.25" height="20" as="geometry"/></mxCell><mxCell id="KrXppkfDbPsKSOxk7Zb5-21" value="1B&amp;nbsp; 1A&amp;nbsp; 2B&amp;nbsp; 2A" style="text;html=1;strokeColor=none;fillColor=none;align=center;verticalAlign=middle;whiteSpace=wrap;rounded=0;" parent="1" vertex="1"><mxGeometry x="541.25" y="515" width="90" height="30" as="geometry"/></mxCell><mxCell id="KrXppkfDbPsKSOxk7Zb5-22" value="Z" style="text;html=1;strokeColor=none;fillColor=none;align=center;verticalAlign=middle;whiteSpace=wrap;rounded=0;" parent="1" vertex="1"><mxGeometry x="556.87" y="490" width="60" height="30" as="geometry"/></mxCell><mxCell id="KrXppkfDbPsKSOxk7Zb5-23" value="" style="rounded=0;whiteSpace=wrap;html=1;fillColor=none;" parent="1" vertex="1"><mxGeometry x="555.62" y="325" width="70" height="50" as="geometry"/></mxCell><mxCell id="KrXppkfDbPsKSOxk7Zb5-24" value="" style="rounded=0;whiteSpace=wrap;html=1;" parent="1" vertex="1"><mxGeometry x="673.75" y="320" width="96.25" height="160" as="geometry"/></mxCell><mxCell id="KrXppkfDbPsKSOxk7Zb5-25" value="+&amp;nbsp; &amp;nbsp; &amp;nbsp;-&lt;br&gt;Emergency&lt;br&gt;Stop ok" style="text;html=1;strokeColor=none;fillColor=none;align=center;verticalAlign=middle;whiteSpace=wrap;rounded=0;" parent="1" vertex="1"><mxGeometry x="686.87" y="330" width="70" height="40" as="geometry"/></mxCell><mxCell id="KrXppkfDbPsKSOxk7Zb5-26" value="Driver BreakoutBoard" style="text;html=1;strokeColor=none;fillColor=none;align=center;verticalAlign=middle;whiteSpace=wrap;rounded=0;rotation=270;" parent="1" vertex="1"><mxGeometry x="607.5" y="375" width="118.75" height="30" as="geometry"/></mxCell><mxCell id="KrXppkfDbPsKSOxk7Zb5-27" value="" style="rounded=0;whiteSpace=wrap;html=1;" parent="1" vertex="1"><mxGeometry x="671.87" y="520" width="96.25" height="20" as="geometry"/></mxCell><mxCell id="KrXppkfDbPsKSOxk7Zb5-28" value="1B&amp;nbsp; 1A&amp;nbsp; 2B&amp;nbsp; 2A" style="text;html=1;strokeColor=none;fillColor=none;align=center;verticalAlign=middle;whiteSpace=wrap;rounded=0;" parent="1" vertex="1"><mxGeometry x="673.75" y="515" width="90" height="30" as="geometry"/></mxCell><mxCell id="KrXppkfDbPsKSOxk7Zb5-29" value="E1" style="text;html=1;strokeColor=none;fillColor=none;align=center;verticalAlign=middle;whiteSpace=wrap;rounded=0;" parent="1" vertex="1"><mxGeometry x="689.37" y="490" width="60" height="30" as="geometry"/></mxCell><mxCell id="KrXppkfDbPsKSOxk7Zb5-30" value="" style="rounded=0;whiteSpace=wrap;html=1;fillColor=none;" parent="1" vertex="1"><mxGeometry x="688.12" y="325" width="70" height="50" as="geometry"/></mxCell><mxCell id="KrXppkfDbPsKSOxk7Zb5-31" value="" style="rounded=0;whiteSpace=wrap;html=1;" parent="1" vertex="1"><mxGeometry x="805.75" y="320" width="96.25" height="160" as="geometry"/></mxCell><mxCell id="KrXppkfDbPsKSOxk7Zb5-32" value="+&amp;nbsp; &amp;nbsp; &amp;nbsp;-&lt;br&gt;Emergency&lt;br&gt;Stop ok" style="text;html=1;strokeColor=none;fillColor=none;align=center;verticalAlign=middle;whiteSpace=wrap;rounded=0;" parent="1" vertex="1"><mxGeometry x="818.87" y="330" width="70" height="40" as="geometry"/></mxCell><mxCell id="KrXppkfDbPsKSOxk7Zb5-33" value="Driver BreakoutBoard" style="text;html=1;strokeColor=none;fillColor=none;align=center;verticalAlign=middle;whiteSpace=wrap;rounded=0;rotation=270;" parent="1" vertex="1"><mxGeometry x="739.5" y="375" width="118.75" height="30" as="geometry"/></mxCell><mxCell id="KrXppkfDbPsKSOxk7Zb5-34" value="" style="rounded=0;whiteSpace=wrap;html=1;" parent="1" vertex="1"><mxGeometry x="803.87" y="520" width="96.25" height="20" as="geometry"/></mxCell><mxCell id="KrXppkfDbPsKSOxk7Zb5-35" value="1B&amp;nbsp; 1A&amp;nbsp; 2B&amp;nbsp; 2A" style="text;html=1;strokeColor=none;fillColor=none;align=center;verticalAlign=middle;whiteSpace=wrap;rounded=0;" parent="1" vertex="1"><mxGeometry x="805.75" y="515" width="90" height="30" as="geometry"/></mxCell><mxCell id="KrXppkfDbPsKSOxk7Zb5-36" value="E2" style="text;html=1;strokeColor=none;fillColor=none;align=center;verticalAlign=middle;whiteSpace=wrap;rounded=0;" parent="1" vertex="1"><mxGeometry x="821.37" y="490" width="60" height="30" as="geometry"/></mxCell><mxCell id="KrXppkfDbPsKSOxk7Zb5-37" value="" style="rounded=0;whiteSpace=wrap;html=1;fillColor=none;" parent="1" vertex="1"><mxGeometry x="820.12" y="325" width="70" height="50" as="geometry"/></mxCell><mxCell id="KrXppkfDbPsKSOxk7Zb5-38" value="" style="rounded=0;whiteSpace=wrap;html=1;" parent="1" vertex="1"><mxGeometry x="940" y="320" width="96.25" height="160" as="geometry"/></mxCell><mxCell id="KrXppkfDbPsKSOxk7Zb5-39" value="+&amp;nbsp; &amp;nbsp; &amp;nbsp;-&lt;br&gt;Emergency&lt;br&gt;Stop ok" style="text;html=1;strokeColor=none;fillColor=none;align=center;verticalAlign=middle;whiteSpace=wrap;rounded=0;" parent="1" vertex="1"><mxGeometry x="953.12" y="330" width="70" height="40" as="geometry"/></mxCell><mxCell id="KrXppkfDbPsKSOxk7Zb5-40" value="Driver BreakoutBoard" style="text;html=1;strokeColor=none;fillColor=none;align=center;verticalAlign=middle;whiteSpace=wrap;rounded=0;rotation=270;" parent="1" vertex="1"><mxGeometry x="873.75" y="375" width="118.75" height="30" as="geometry"/></mxCell><mxCell id="KrXppkfDbPsKSOxk7Zb5-41" value="" style="rounded=0;whiteSpace=wrap;html=1;" parent="1" vertex="1"><mxGeometry x="938.12" y="520" width="96.25" height="20" as="geometry"/></mxCell><mxCell id="KrXppkfDbPsKSOxk7Zb5-42" value="1B&amp;nbsp; 1A&amp;nbsp; 2B&amp;nbsp; 2A" style="text;html=1;strokeColor=none;fillColor=none;align=center;verticalAlign=middle;whiteSpace=wrap;rounded=0;" parent="1" vertex="1"><mxGeometry x="940" y="515" width="90" height="30" as="geometry"/></mxCell><mxCell id="KrXppkfDbPsKSOxk7Zb5-43" value="E3" style="text;html=1;strokeColor=none;fillColor=none;align=center;verticalAlign=middle;whiteSpace=wrap;rounded=0;" parent="1" vertex="1"><mxGeometry x="955.62" y="490" width="60" height="30" as="geometry"/></mxCell><mxCell id="KrXppkfDbPsKSOxk7Zb5-44" value="" style="rounded=0;whiteSpace=wrap;html=1;fillColor=none;" parent="1" vertex="1"><mxGeometry x="954.37" y="325" width="70" height="50" as="geometry"/></mxCell><mxCell id="KrXppkfDbPsKSOxk7Zb5-45" value="" style="rounded=0;whiteSpace=wrap;html=1;" parent="1" vertex="1"><mxGeometry x="1313.75" y="320" width="96.25" height="180" as="geometry"/></mxCell><mxCell id="KrXppkfDbPsKSOxk7Zb5-46" value="Endstop Levelshifter" style="text;html=1;strokeColor=none;fillColor=none;align=center;verticalAlign=middle;whiteSpace=wrap;rounded=0;rotation=270;" parent="1" vertex="1"><mxGeometry x="1243.75" y="400" width="118.75" height="30" as="geometry"/></mxCell><mxCell id="KrXppkfDbPsKSOxk7Zb5-47" value="" style="verticalLabelPosition=bottom;shadow=0;dashed=0;align=center;html=1;verticalAlign=top;strokeWidth=1;shape=ellipse;perimeter=ellipsePerimeter;" parent="1" vertex="1"><mxGeometry x="1180" y="330" width="10" height="10" as="geometry"/></mxCell><mxCell id="KrXppkfDbPsKSOxk7Zb5-48" value="&lt;font style=&quot;font-size: 12px;&quot; face=&quot;Helvetica&quot;&gt;12 V&lt;/font&gt;" style="text;html=1;strokeColor=none;fillColor=none;align=center;verticalAlign=middle;whiteSpace=wrap;rounded=0;" parent="1" vertex="1"><mxGeometry x="1143.75" y="320" width="37.5" height="30" as="geometry"/></mxCell><mxCell id="KrXppkfDbPsKSOxk7Zb5-49" value="" style="verticalLabelPosition=bottom;shadow=0;dashed=0;align=center;html=1;verticalAlign=top;strokeWidth=1;shape=ellipse;perimeter=ellipsePerimeter;" parent="1" vertex="1"><mxGeometry x="1180" y="345" width="10" height="10" as="geometry"/></mxCell><mxCell id="KrXppkfDbPsKSOxk7Zb5-50" value="&lt;font style=&quot;font-size: 12px;&quot; face=&quot;Helvetica&quot;&gt;GND&lt;/font&gt;" style="text;html=1;strokeColor=none;fillColor=none;align=center;verticalAlign=middle;whiteSpace=wrap;rounded=0;" parent="1" vertex="1"><mxGeometry x="1143.75" y="335" width="37.5" height="30" as="geometry"/></mxCell><mxCell id="KrXppkfDbPsKSOxk7Zb5-51" value="&lt;font style=&quot;font-size: 12px;&quot; face=&quot;Helvetica&quot;&gt;12 V&lt;/font&gt;" style="text;html=1;strokeColor=none;fillColor=none;align=center;verticalAlign=middle;whiteSpace=wrap;rounded=0;" parent="1" vertex="1"><mxGeometry x="1314.75" y="320" width="37.5" height="30" as="geometry"/></mxCell><mxCell id="KrXppkfDbPsKSOxk7Zb5-52" value="&lt;font style=&quot;font-size: 12px;&quot; face=&quot;Helvetica&quot;&gt;GND&lt;/font&gt;" style="text;html=1;strokeColor=none;fillColor=none;align=center;verticalAlign=middle;whiteSpace=wrap;rounded=0;" parent="1" vertex="1"><mxGeometry x="1314.75" y="335" width="37.5" height="30" as="geometry"/></mxCell><mxCell id="KrXppkfDbPsKSOxk7Zb5-53" value="" style="endArrow=none;html=1;rounded=0;entryX=0;entryY=0;entryDx=0;entryDy=0;exitX=1;exitY=0.5;exitDx=0;exitDy=0;" parent="1" source="KrXppkfDbPsKSOxk7Zb5-47" target="KrXppkfDbPsKSOxk7Zb5-52" edge="1"><mxGeometry width="50" height="50" relative="1" as="geometry"><mxPoint x="1143.75" y="380" as="sourcePoint"/><mxPoint x="1193.75" y="330" as="targetPoint"/></mxGeometry></mxCell><mxCell id="KrXppkfDbPsKSOxk7Zb5-54" value="" style="endArrow=none;html=1;rounded=0;entryX=0;entryY=0;entryDx=0;entryDy=0;exitX=1;exitY=0.5;exitDx=0;exitDy=0;" parent="1" edge="1"><mxGeometry width="50" height="50" relative="1" as="geometry"><mxPoint x="1189.75" y="350" as="sourcePoint"/><mxPoint x="1314.75" y="350" as="targetPoint"/></mxGeometry></mxCell><mxCell id="KrXppkfDbPsKSOxk7Zb5-56" value="" style="rounded=0;whiteSpace=wrap;html=1;" parent="1" vertex="1"><mxGeometry x="223.75" y="751" width="191.25" height="80" as="geometry"/></mxCell><mxCell id="KrXppkfDbPsKSOxk7Zb5-57" value="Pul+&amp;nbsp; Pul-&amp;nbsp; Dir+&amp;nbsp; Dir-&amp;nbsp; Enbl+&amp;nbsp; Enbl-&lt;span style=&quot;white-space: pre;&quot;&gt; &lt;/span&gt;" style="text;html=1;strokeColor=none;fillColor=none;align=center;verticalAlign=middle;whiteSpace=wrap;rounded=0;" parent="1" vertex="1"><mxGeometry x="223.75" y="751" width="190" height="30" as="geometry"/></mxCell><mxCell id="KrXppkfDbPsKSOxk7Zb5-58" value="DC-&amp;nbsp; &amp;nbsp;DC+&amp;nbsp; &amp;nbsp;A+&amp;nbsp; &amp;nbsp;A-&amp;nbsp; &amp;nbsp;B+&amp;nbsp; &amp;nbsp;B-&amp;nbsp;" style="text;html=1;strokeColor=none;fillColor=none;align=center;verticalAlign=middle;whiteSpace=wrap;rounded=0;" parent="1" vertex="1"><mxGeometry x="232.19" y="801" width="173.12" height="30" as="geometry"/></mxCell><mxCell id="KrXppkfDbPsKSOxk7Zb5-59" value="-T3" style="text;html=1;strokeColor=none;fillColor=none;align=center;verticalAlign=middle;whiteSpace=wrap;rounded=0;" parent="1" vertex="1"><mxGeometry x="190" y="751" width="37.5" height="30" as="geometry"/></mxCell><mxCell id="KrXppkfDbPsKSOxk7Zb5-68" value="" style="endArrow=none;html=1;rounded=0;entryX=0.71;entryY=0.012;entryDx=0;entryDy=0;entryPerimeter=0;" parent="1" target="KrXppkfDbPsKSOxk7Zb5-57" edge="1"><mxGeometry width="50" height="50" relative="1" as="geometry"><Array as="points"><mxPoint x="358.75" y="721"/></Array><mxPoint x="243.75" y="721" as="sourcePoint"/><mxPoint x="363.75000000000006" y="750.79" as="targetPoint"/></mxGeometry></mxCell><mxCell id="KrXppkfDbPsKSOxk7Zb5-69" value="" style="endArrow=none;html=1;rounded=0;entryX=0.105;entryY=-0.005;entryDx=0;entryDy=0;entryPerimeter=0;" parent="1" target="KrXppkfDbPsKSOxk7Zb5-57" edge="1"><mxGeometry width="50" height="50" relative="1" as="geometry"><mxPoint x="243.75" y="721" as="sourcePoint"/><mxPoint x="403.75" y="681" as="targetPoint"/></mxGeometry></mxCell><mxCell id="KrXppkfDbPsKSOxk7Zb5-70" value="" style="endArrow=none;html=1;rounded=0;exitDx=0;exitDy=0;exitPerimeter=0;" parent="1" source="KrXppkfDbPsKSOxk7Zb5-78" edge="1"><mxGeometry width="50" height="50" relative="1" as="geometry"><mxPoint x="353.75" y="731" as="sourcePoint"/><mxPoint x="297.75" y="721" as="targetPoint"/></mxGeometry></mxCell><mxCell id="KrXppkfDbPsKSOxk7Zb5-79" value="" style="endArrow=none;html=1;rounded=0;exitX=0.39;exitY=-0.018;exitDx=0;exitDy=0;exitPerimeter=0;" parent="1" source="KrXppkfDbPsKSOxk7Zb5-57" target="KrXppkfDbPsKSOxk7Zb5-78" edge="1"><mxGeometry width="50" height="50" relative="1" as="geometry"><mxPoint x="297.75" y="750" as="sourcePoint"/><mxPoint x="297.75" y="721" as="targetPoint"/></mxGeometry></mxCell><mxCell id="KrXppkfDbPsKSOxk7Zb5-78" value="" style="shape=waypoint;sketch=0;fillStyle=solid;size=6;pointerEvents=1;points=[];fillColor=none;resizable=0;rotatable=0;perimeter=centerPerimeter;snapToPoint=1;" parent="1" vertex="1"><mxGeometry x="287.5" y="710" width="20" height="20" as="geometry"/></mxCell><mxCell id="KrXppkfDbPsKSOxk7Zb5-80" value="" style="rounded=0;whiteSpace=wrap;html=1;" parent="1" vertex="1"><mxGeometry x="454.75" y="751" width="191.25" height="80" as="geometry"/></mxCell><mxCell id="KrXppkfDbPsKSOxk7Zb5-81" value="Pul+&amp;nbsp; Pul-&amp;nbsp; Dir+&amp;nbsp; Dir-&amp;nbsp; Enbl+&amp;nbsp; Enbl-&lt;span style=&quot;white-space: pre;&quot;&gt; &lt;/span&gt;" style="text;html=1;strokeColor=none;fillColor=none;align=center;verticalAlign=middle;whiteSpace=wrap;rounded=0;" parent="1" vertex="1"><mxGeometry x="454.75" y="751" width="190" height="30" as="geometry"/></mxCell><mxCell id="KrXppkfDbPsKSOxk7Zb5-82" value="DC-&amp;nbsp; &amp;nbsp;DC+&amp;nbsp; &amp;nbsp;A+&amp;nbsp; &amp;nbsp;A-&amp;nbsp; &amp;nbsp;B+&amp;nbsp; &amp;nbsp;B-&amp;nbsp;" style="text;html=1;strokeColor=none;fillColor=none;align=center;verticalAlign=middle;whiteSpace=wrap;rounded=0;" parent="1" vertex="1"><mxGeometry x="463.19" y="801" width="173.12" height="30" as="geometry"/></mxCell><mxCell id="KrXppkfDbPsKSOxk7Zb5-83" value="-T4" style="text;html=1;strokeColor=none;fillColor=none;align=center;verticalAlign=middle;whiteSpace=wrap;rounded=0;" parent="1" vertex="1"><mxGeometry x="421" y="751" width="37.5" height="30" as="geometry"/></mxCell><mxCell id="KrXppkfDbPsKSOxk7Zb5-84" value="" style="endArrow=none;html=1;rounded=0;entryX=0.71;entryY=0.012;entryDx=0;entryDy=0;entryPerimeter=0;" parent="1" target="KrXppkfDbPsKSOxk7Zb5-81" edge="1"><mxGeometry width="50" height="50" relative="1" as="geometry"><Array as="points"><mxPoint x="589.75" y="721"/></Array><mxPoint x="474.75" y="721" as="sourcePoint"/><mxPoint x="594.75" y="750.79" as="targetPoint"/></mxGeometry></mxCell><mxCell id="KrXppkfDbPsKSOxk7Zb5-85" value="" style="endArrow=none;html=1;rounded=0;entryX=0.116;entryY=0.001;entryDx=0;entryDy=0;entryPerimeter=0;" parent="1" source="KrXppkfDbPsKSOxk7Zb5-105" target="KrXppkfDbPsKSOxk7Zb5-81" edge="1"><mxGeometry width="50" height="50" relative="1" as="geometry"><mxPoint x="474.75" y="721" as="sourcePoint"/><mxPoint x="634.75" y="681" as="targetPoint"/></mxGeometry></mxCell><mxCell id="KrXppkfDbPsKSOxk7Zb5-86" value="" style="endArrow=none;html=1;rounded=0;exitDx=0;exitDy=0;exitPerimeter=0;" parent="1" source="KrXppkfDbPsKSOxk7Zb5-88" edge="1"><mxGeometry width="50" height="50" relative="1" as="geometry"><mxPoint x="584.75" y="731" as="sourcePoint"/><mxPoint x="528.75" y="721" as="targetPoint"/></mxGeometry></mxCell><mxCell id="KrXppkfDbPsKSOxk7Zb5-87" value="" style="endArrow=none;html=1;rounded=0;exitX=0.39;exitY=-0.018;exitDx=0;exitDy=0;exitPerimeter=0;" parent="1" source="KrXppkfDbPsKSOxk7Zb5-81" target="KrXppkfDbPsKSOxk7Zb5-88" edge="1"><mxGeometry width="50" height="50" relative="1" as="geometry"><mxPoint x="528.75" y="750" as="sourcePoint"/><mxPoint x="528.75" y="721" as="targetPoint"/></mxGeometry></mxCell><mxCell id="KrXppkfDbPsKSOxk7Zb5-88" value="" style="shape=waypoint;sketch=0;fillStyle=solid;size=6;pointerEvents=1;points=[];fillColor=none;resizable=0;rotatable=0;perimeter=centerPerimeter;snapToPoint=1;" parent="1" vertex="1"><mxGeometry x="518.5" y="710" width="20" height="20" as="geometry"/></mxCell><mxCell id="KrXppkfDbPsKSOxk7Zb5-89" value="" style="rounded=0;whiteSpace=wrap;html=1;" parent="1" vertex="1"><mxGeometry x="686.75" y="751" width="191.25" height="80" as="geometry"/></mxCell><mxCell id="KrXppkfDbPsKSOxk7Zb5-90" value="Pul+&amp;nbsp; Pul-&amp;nbsp; Dir+&amp;nbsp; Dir-&amp;nbsp; Enbl+&amp;nbsp; Enbl-&lt;span style=&quot;white-space: pre;&quot;&gt; &lt;/span&gt;" style="text;html=1;strokeColor=none;fillColor=none;align=center;verticalAlign=middle;whiteSpace=wrap;rounded=0;" parent="1" vertex="1"><mxGeometry x="686.75" y="751" width="190" height="30" as="geometry"/></mxCell><mxCell id="KrXppkfDbPsKSOxk7Zb5-91" value="DC-&amp;nbsp; &amp;nbsp;DC+&amp;nbsp; &amp;nbsp;A+&amp;nbsp; &amp;nbsp;A-&amp;nbsp; &amp;nbsp;B+&amp;nbsp; &amp;nbsp;B-&amp;nbsp;" style="text;html=1;strokeColor=none;fillColor=none;align=center;verticalAlign=middle;whiteSpace=wrap;rounded=0;" parent="1" vertex="1"><mxGeometry x="695.19" y="801" width="173.12" height="30" as="geometry"/></mxCell><mxCell id="KrXppkfDbPsKSOxk7Zb5-92" value="-T5" style="text;html=1;strokeColor=none;fillColor=none;align=center;verticalAlign=middle;whiteSpace=wrap;rounded=0;" parent="1" vertex="1"><mxGeometry x="653" y="751" width="37.5" height="30" as="geometry"/></mxCell><mxCell id="KrXppkfDbPsKSOxk7Zb5-93" value="" style="endArrow=none;html=1;rounded=0;entryX=0.71;entryY=0.012;entryDx=0;entryDy=0;entryPerimeter=0;" parent="1" target="KrXppkfDbPsKSOxk7Zb5-90" edge="1"><mxGeometry width="50" height="50" relative="1" as="geometry"><Array as="points"><mxPoint x="821.75" y="721"/></Array><mxPoint x="706.75" y="721" as="sourcePoint"/><mxPoint x="826.75" y="750.79" as="targetPoint"/></mxGeometry></mxCell><mxCell id="KrXppkfDbPsKSOxk7Zb5-94" value="" style="endArrow=none;html=1;rounded=0;entryX=0.101;entryY=0.013;entryDx=0;entryDy=0;entryPerimeter=0;" parent="1" source="KrXppkfDbPsKSOxk7Zb5-74" target="KrXppkfDbPsKSOxk7Zb5-90" edge="1"><mxGeometry width="50" height="50" relative="1" as="geometry"><mxPoint x="706.75" y="721" as="sourcePoint"/><mxPoint x="705.75" y="750" as="targetPoint"/></mxGeometry></mxCell><mxCell id="KrXppkfDbPsKSOxk7Zb5-95" value="" style="endArrow=none;html=1;rounded=0;exitDx=0;exitDy=0;exitPerimeter=0;" parent="1" source="KrXppkfDbPsKSOxk7Zb5-97" edge="1"><mxGeometry width="50" height="50" relative="1" as="geometry"><mxPoint x="816.75" y="731" as="sourcePoint"/><mxPoint x="760.75" y="721" as="targetPoint"/></mxGeometry></mxCell><mxCell id="KrXppkfDbPsKSOxk7Zb5-96" value="" style="endArrow=none;html=1;rounded=0;exitX=0.39;exitY=-0.018;exitDx=0;exitDy=0;exitPerimeter=0;" parent="1" source="KrXppkfDbPsKSOxk7Zb5-90" target="KrXppkfDbPsKSOxk7Zb5-97" edge="1"><mxGeometry width="50" height="50" relative="1" as="geometry"><mxPoint x="760.75" y="750" as="sourcePoint"/><mxPoint x="760.75" y="721" as="targetPoint"/></mxGeometry></mxCell><mxCell id="KrXppkfDbPsKSOxk7Zb5-97" value="" style="shape=waypoint;sketch=0;fillStyle=solid;size=6;pointerEvents=1;points=[];fillColor=none;resizable=0;rotatable=0;perimeter=centerPerimeter;snapToPoint=1;" parent="1" vertex="1"><mxGeometry x="750.5" y="710" width="20" height="20" as="geometry"/></mxCell><mxCell id="KrXppkfDbPsKSOxk7Zb5-100" value="" style="endArrow=none;html=1;rounded=0;entryX=0.058;entryY=0.999;entryDx=0;entryDy=0;entryPerimeter=0;" parent="1" source="KrXppkfDbPsKSOxk7Zb5-78" target="KrXppkfDbPsKSOxk7Zb5-1" edge="1"><mxGeometry width="50" height="50" relative="1" as="geometry"><Array as="points"/><mxPoint x="293.75" y="570" as="sourcePoint"/><mxPoint x="333.75" y="550" as="targetPoint"/></mxGeometry></mxCell><mxCell id="KrXppkfDbPsKSOxk7Zb5-101" value="" style="endArrow=none;html=1;rounded=0;entryX=0.076;entryY=0.996;entryDx=0;entryDy=0;entryPerimeter=0;exitX=0.26;exitY=-0.01;exitDx=0;exitDy=0;exitPerimeter=0;" parent="1" source="KrXppkfDbPsKSOxk7Zb5-57" target="KrXppkfDbPsKSOxk7Zb5-1" edge="1"><mxGeometry width="50" height="50" relative="1" as="geometry"><Array as="points"><mxPoint x="273.75" y="580"/><mxPoint x="313.75" y="580"/></Array><mxPoint x="283.75" y="600" as="sourcePoint"/><mxPoint x="333.75" y="550" as="targetPoint"/></mxGeometry></mxCell><mxCell id="KrXppkfDbPsKSOxk7Zb5-102" value="" style="endArrow=none;html=1;rounded=0;entryX=0.093;entryY=0.998;entryDx=0;entryDy=0;entryPerimeter=0;exitX=0.526;exitY=0.007;exitDx=0;exitDy=0;exitPerimeter=0;" parent="1" source="KrXppkfDbPsKSOxk7Zb5-57" target="KrXppkfDbPsKSOxk7Zb5-1" edge="1"><mxGeometry width="50" height="50" relative="1" as="geometry"><Array as="points"><mxPoint x="323.75" y="580"/><mxPoint x="334.75" y="580"/></Array><mxPoint x="283.75" y="600" as="sourcePoint"/><mxPoint x="333.75" y="550" as="targetPoint"/></mxGeometry></mxCell><mxCell id="KrXppkfDbPsKSOxk7Zb5-103" value="" style="endArrow=none;html=1;rounded=0;entryX=0.11;entryY=0.999;entryDx=0;entryDy=0;entryPerimeter=0;exitX=0.893;exitY=-0.006;exitDx=0;exitDy=0;exitPerimeter=0;" parent="1" source="KrXppkfDbPsKSOxk7Zb5-57" target="KrXppkfDbPsKSOxk7Zb5-1" edge="1"><mxGeometry width="50" height="50" relative="1" as="geometry"><Array as="points"><mxPoint x="393.75" y="580"/><mxPoint x="354.75" y="580"/></Array><mxPoint x="273.75" y="610" as="sourcePoint"/><mxPoint x="323.75" y="560" as="targetPoint"/></mxGeometry></mxCell><mxCell id="KrXppkfDbPsKSOxk7Zb5-104" value="" style="endArrow=none;html=1;rounded=0;entryX=0.169;entryY=1.001;entryDx=0;entryDy=0;entryPerimeter=0;" parent="1" source="KrXppkfDbPsKSOxk7Zb5-105" target="KrXppkfDbPsKSOxk7Zb5-1" edge="1"><mxGeometry width="50" height="50" relative="1" as="geometry"><Array as="points"><mxPoint x="476.75" y="650"/><mxPoint x="423.75" y="650"/><mxPoint x="424.75" y="580"/></Array><mxPoint x="473.75" y="720" as="sourcePoint"/><mxPoint x="523.75" y="570" as="targetPoint"/></mxGeometry></mxCell><mxCell id="KrXppkfDbPsKSOxk7Zb5-106" value="" style="endArrow=none;html=1;rounded=0;entryDx=0;entryDy=0;entryPerimeter=0;" parent="1" target="KrXppkfDbPsKSOxk7Zb5-105" edge="1"><mxGeometry width="50" height="50" relative="1" as="geometry"><mxPoint x="474.75" y="721" as="sourcePoint"/><mxPoint x="474.75" y="751" as="targetPoint"/></mxGeometry></mxCell><mxCell id="KrXppkfDbPsKSOxk7Zb5-105" value="" style="shape=waypoint;sketch=0;fillStyle=solid;size=6;pointerEvents=1;points=[];fillColor=none;resizable=0;rotatable=0;perimeter=centerPerimeter;snapToPoint=1;" parent="1" vertex="1"><mxGeometry x="466.87" y="710" width="20" height="20" as="geometry"/></mxCell><mxCell id="KrXppkfDbPsKSOxk7Zb5-107" value="" style="endArrow=none;html=1;rounded=0;entryX=0.189;entryY=1.001;entryDx=0;entryDy=0;entryPerimeter=0;exitX=0.25;exitY=0;exitDx=0;exitDy=0;" parent="1" source="KrXppkfDbPsKSOxk7Zb5-81" target="KrXppkfDbPsKSOxk7Zb5-1" edge="1"><mxGeometry width="50" height="50" relative="1" as="geometry"><Array as="points"><mxPoint x="502.75" y="640"/><mxPoint x="448.75" y="640"/></Array><mxPoint x="513.75" y="630" as="sourcePoint"/><mxPoint x="563.75" y="580" as="targetPoint"/></mxGeometry></mxCell><mxCell id="KrXppkfDbPsKSOxk7Zb5-108" value="" style="endArrow=none;html=1;rounded=0;entryX=0.205;entryY=0.999;entryDx=0;entryDy=0;entryPerimeter=0;exitX=0.522;exitY=-0.015;exitDx=0;exitDy=0;exitPerimeter=0;" parent="1" source="KrXppkfDbPsKSOxk7Zb5-81" target="KrXppkfDbPsKSOxk7Zb5-1" edge="1"><mxGeometry width="50" height="50" relative="1" as="geometry"><Array as="points"><mxPoint x="553.75" y="630"/><mxPoint x="467.75" y="630"/></Array><mxPoint x="513.75" y="630" as="sourcePoint"/><mxPoint x="563.75" y="580" as="targetPoint"/></mxGeometry></mxCell><mxCell id="KrXppkfDbPsKSOxk7Zb5-109" value="" style="endArrow=none;html=1;rounded=0;exitX=0.872;exitY=-0.056;exitDx=0;exitDy=0;exitPerimeter=0;entryX=0.222;entryY=1.001;entryDx=0;entryDy=0;entryPerimeter=0;" parent="1" source="KrXppkfDbPsKSOxk7Zb5-81" target="KrXppkfDbPsKSOxk7Zb5-1" edge="1"><mxGeometry width="50" height="50" relative="1" as="geometry"><Array as="points"><mxPoint x="620.75" y="610"/><mxPoint x="487.75" y="610"/></Array><mxPoint x="513.75" y="630" as="sourcePoint"/><mxPoint x="563.75" y="580" as="targetPoint"/></mxGeometry></mxCell><mxCell id="KrXppkfDbPsKSOxk7Zb5-110" value="" style="endArrow=none;html=1;rounded=0;entryX=0.278;entryY=1.001;entryDx=0;entryDy=0;entryPerimeter=0;" parent="1" source="KrXppkfDbPsKSOxk7Zb5-74" target="KrXppkfDbPsKSOxk7Zb5-1" edge="1"><mxGeometry width="50" height="50" relative="1" as="geometry"><Array as="points"><mxPoint x="703.75" y="600"/><mxPoint x="554.75" y="600"/></Array><mxPoint x="703.75" y="720" as="sourcePoint"/><mxPoint x="663.75" y="590" as="targetPoint"/></mxGeometry></mxCell><mxCell id="KrXppkfDbPsKSOxk7Zb5-111" value="" style="endArrow=none;html=1;rounded=0;entryDx=0;entryDy=0;entryPerimeter=0;" parent="1" target="KrXppkfDbPsKSOxk7Zb5-74" edge="1"><mxGeometry width="50" height="50" relative="1" as="geometry"><mxPoint x="706.75" y="721" as="sourcePoint"/><mxPoint x="706.75" y="751" as="targetPoint"/></mxGeometry></mxCell><mxCell id="KrXppkfDbPsKSOxk7Zb5-74" value="" style="shape=waypoint;sketch=0;fillStyle=solid;size=6;pointerEvents=1;points=[];fillColor=none;resizable=0;rotatable=0;perimeter=centerPerimeter;snapToPoint=1;" parent="1" vertex="1"><mxGeometry x="695.5" y="710" width="20" height="20" as="geometry"/></mxCell><mxCell id="KrXppkfDbPsKSOxk7Zb5-112" value="" style="endArrow=none;html=1;rounded=0;entryX=0.297;entryY=1;entryDx=0;entryDy=0;entryPerimeter=0;exitX=0.25;exitY=0;exitDx=0;exitDy=0;" parent="1" source="KrXppkfDbPsKSOxk7Zb5-90" target="KrXppkfDbPsKSOxk7Zb5-1" edge="1"><mxGeometry width="50" height="50" relative="1" as="geometry"><Array as="points"><mxPoint x="733.75" y="590"/><mxPoint x="576.75" y="590"/></Array><mxPoint x="553.75" y="640" as="sourcePoint"/><mxPoint x="603.75" y="590" as="targetPoint"/></mxGeometry></mxCell><mxCell id="KrXppkfDbPsKSOxk7Zb5-113" value="" style="endArrow=none;html=1;rounded=0;entryX=0.311;entryY=1;entryDx=0;entryDy=0;entryPerimeter=0;exitX=0.542;exitY=-0.017;exitDx=0;exitDy=0;exitPerimeter=0;" parent="1" source="KrXppkfDbPsKSOxk7Zb5-90" target="KrXppkfDbPsKSOxk7Zb5-1" edge="1"><mxGeometry width="50" height="50" relative="1" as="geometry"><Array as="points"><mxPoint x="789.75" y="580"/><mxPoint x="593.75" y="580"/></Array><mxPoint x="553.75" y="640" as="sourcePoint"/><mxPoint x="603.75" y="590" as="targetPoint"/></mxGeometry></mxCell><mxCell id="KrXppkfDbPsKSOxk7Zb5-114" value="" style="endArrow=none;html=1;rounded=0;entryX=0.331;entryY=0.999;entryDx=0;entryDy=0;entryPerimeter=0;exitX=0.865;exitY=0.005;exitDx=0;exitDy=0;exitPerimeter=0;" parent="1" source="KrXppkfDbPsKSOxk7Zb5-90" target="KrXppkfDbPsKSOxk7Zb5-1" edge="1"><mxGeometry width="50" height="50" relative="1" as="geometry"><Array as="points"><mxPoint x="851.75" y="570"/><mxPoint x="617.75" y="570"/></Array><mxPoint x="483.75" y="640" as="sourcePoint"/><mxPoint x="533.75" y="590" as="targetPoint"/></mxGeometry></mxCell><mxCell id="KrXppkfDbPsKSOxk7Zb5-115" value="&lt;font style=&quot;font-size: 12px;&quot; face=&quot;Helvetica&quot;&gt;-X1:31&lt;/font&gt;" style="text;html=1;strokeColor=none;fillColor=none;align=center;verticalAlign=middle;whiteSpace=wrap;rounded=0;" parent="1" vertex="1"><mxGeometry x="195" y="870" width="62.5" height="30" as="geometry"/></mxCell><mxCell id="KrXppkfDbPsKSOxk7Zb5-116" value="" style="verticalLabelPosition=bottom;shadow=0;dashed=0;align=center;html=1;verticalAlign=top;strokeWidth=1;shape=ellipse;perimeter=ellipsePerimeter;" parent="1" vertex="1"><mxGeometry x="242.5" y="890" width="10" height="10" as="geometry"/></mxCell><mxCell id="KrXppkfDbPsKSOxk7Zb5-117" value="" style="endArrow=none;html=1;rounded=0;exitX=0.5;exitY=0;exitDx=0;exitDy=0;entryX=0.089;entryY=1.007;entryDx=0;entryDy=0;entryPerimeter=0;" parent="1" source="KrXppkfDbPsKSOxk7Zb5-116" target="KrXppkfDbPsKSOxk7Zb5-58" edge="1"><mxGeometry width="50" height="50" relative="1" as="geometry"><mxPoint x="253.75" y="880" as="sourcePoint"/><mxPoint x="247.75" y="850" as="targetPoint"/></mxGeometry></mxCell><mxCell id="KrXppkfDbPsKSOxk7Zb5-118" value="" style="verticalLabelPosition=bottom;shadow=0;dashed=0;align=center;html=1;verticalAlign=top;strokeWidth=1;shape=ellipse;perimeter=ellipsePerimeter;" parent="1" vertex="1"><mxGeometry x="271.5" y="890" width="10" height="10" as="geometry"/></mxCell><mxCell id="KrXppkfDbPsKSOxk7Zb5-119" value="" style="endArrow=none;html=1;rounded=0;exitX=0.5;exitY=0;exitDx=0;exitDy=0;entryX=0.259;entryY=1.015;entryDx=0;entryDy=0;entryPerimeter=0;" parent="1" source="KrXppkfDbPsKSOxk7Zb5-118" target="KrXppkfDbPsKSOxk7Zb5-58" edge="1"><mxGeometry width="50" height="50" relative="1" as="geometry"><mxPoint x="282.75" y="880" as="sourcePoint"/><mxPoint x="276.75" y="850" as="targetPoint"/></mxGeometry></mxCell><mxCell id="KrXppkfDbPsKSOxk7Zb5-120" value="" style="verticalLabelPosition=bottom;shadow=0;dashed=0;align=center;html=1;verticalAlign=top;strokeWidth=1;shape=ellipse;perimeter=ellipsePerimeter;" parent="1" vertex="1"><mxGeometry x="301.5" y="890" width="10" height="10" as="geometry"/></mxCell><mxCell id="KrXppkfDbPsKSOxk7Zb5-121" value="" style="endArrow=none;html=1;rounded=0;exitX=0.5;exitY=0;exitDx=0;exitDy=0;entryX=0.429;entryY=1;entryDx=0;entryDy=0;entryPerimeter=0;" parent="1" source="KrXppkfDbPsKSOxk7Zb5-120" target="KrXppkfDbPsKSOxk7Zb5-58" edge="1"><mxGeometry width="50" height="50" relative="1" as="geometry"><mxPoint x="312.75" y="880" as="sourcePoint"/><mxPoint x="306.75" y="850" as="targetPoint"/></mxGeometry></mxCell><mxCell id="KrXppkfDbPsKSOxk7Zb5-122" value="" style="verticalLabelPosition=bottom;shadow=0;dashed=0;align=center;html=1;verticalAlign=top;strokeWidth=1;shape=ellipse;perimeter=ellipsePerimeter;" parent="1" vertex="1"><mxGeometry x="332.88" y="890" width="10" height="10" as="geometry"/></mxCell><mxCell id="KrXppkfDbPsKSOxk7Zb5-123" value="" style="endArrow=none;html=1;rounded=0;exitX=0.5;exitY=0;exitDx=0;exitDy=0;entryX=0.612;entryY=1.007;entryDx=0;entryDy=0;entryPerimeter=0;" parent="1" source="KrXppkfDbPsKSOxk7Zb5-122" target="KrXppkfDbPsKSOxk7Zb5-58" edge="1"><mxGeometry width="50" height="50" relative="1" as="geometry"><mxPoint x="344.13" y="880" as="sourcePoint"/><mxPoint x="338.13" y="850" as="targetPoint"/></mxGeometry></mxCell><mxCell id="KrXppkfDbPsKSOxk7Zb5-124" value="" style="verticalLabelPosition=bottom;shadow=0;dashed=0;align=center;html=1;verticalAlign=top;strokeWidth=1;shape=ellipse;perimeter=ellipsePerimeter;" parent="1" vertex="1"><mxGeometry x="362" y="890" width="10" height="10" as="geometry"/></mxCell><mxCell id="KrXppkfDbPsKSOxk7Zb5-125" value="" style="endArrow=none;html=1;rounded=0;exitX=0.5;exitY=0;exitDx=0;exitDy=0;entryX=0.779;entryY=1;entryDx=0;entryDy=0;entryPerimeter=0;" parent="1" source="KrXppkfDbPsKSOxk7Zb5-124" target="KrXppkfDbPsKSOxk7Zb5-58" edge="1"><mxGeometry width="50" height="50" relative="1" as="geometry"><mxPoint x="373.25" y="880" as="sourcePoint"/><mxPoint x="367.25" y="850" as="targetPoint"/></mxGeometry></mxCell><mxCell id="KrXppkfDbPsKSOxk7Zb5-126" value="" style="verticalLabelPosition=bottom;shadow=0;dashed=0;align=center;html=1;verticalAlign=top;strokeWidth=1;shape=ellipse;perimeter=ellipsePerimeter;" parent="1" vertex="1"><mxGeometry x="390.75" y="890" width="10" height="10" as="geometry"/></mxCell><mxCell id="KrXppkfDbPsKSOxk7Zb5-127" value="" style="endArrow=none;html=1;rounded=0;exitX=0.5;exitY=0;exitDx=0;exitDy=0;entryX=0.945;entryY=1;entryDx=0;entryDy=0;entryPerimeter=0;" parent="1" source="KrXppkfDbPsKSOxk7Zb5-126" target="KrXppkfDbPsKSOxk7Zb5-58" edge="1"><mxGeometry width="50" height="50" relative="1" as="geometry"><mxPoint x="402" y="880" as="sourcePoint"/><mxPoint x="396" y="850" as="targetPoint"/></mxGeometry></mxCell><mxCell id="KrXppkfDbPsKSOxk7Zb5-139" value="" style="verticalLabelPosition=bottom;shadow=0;dashed=0;align=center;html=1;verticalAlign=top;strokeWidth=1;shape=ellipse;perimeter=ellipsePerimeter;" parent="1" vertex="1"><mxGeometry x="271.5" y="970" width="10" height="10" as="geometry"/></mxCell><mxCell id="KrXppkfDbPsKSOxk7Zb5-140" value="" style="endArrow=none;html=1;rounded=0;exitX=0.5;exitY=0;exitDx=0;exitDy=0;" parent="1" source="KrXppkfDbPsKSOxk7Zb5-139" edge="1"><mxGeometry width="50" height="50" relative="1" as="geometry"><mxPoint x="282.75" y="960" as="sourcePoint"/><mxPoint x="276.75" y="930" as="targetPoint"/></mxGeometry></mxCell><mxCell id="KrXppkfDbPsKSOxk7Zb5-141" value="" style="verticalLabelPosition=bottom;shadow=0;dashed=0;align=center;html=1;verticalAlign=top;strokeWidth=1;shape=ellipse;perimeter=ellipsePerimeter;" parent="1" vertex="1"><mxGeometry x="301.5" y="970" width="10" height="10" as="geometry"/></mxCell><mxCell id="KrXppkfDbPsKSOxk7Zb5-142" value="" style="endArrow=none;html=1;rounded=0;exitX=0.5;exitY=0;exitDx=0;exitDy=0;" parent="1" source="KrXppkfDbPsKSOxk7Zb5-141" edge="1"><mxGeometry width="50" height="50" relative="1" as="geometry"><mxPoint x="312.75" y="960" as="sourcePoint"/><mxPoint x="306.75" y="930" as="targetPoint"/></mxGeometry></mxCell><mxCell id="KrXppkfDbPsKSOxk7Zb5-143" value="" style="verticalLabelPosition=bottom;shadow=0;dashed=0;align=center;html=1;verticalAlign=top;strokeWidth=1;shape=ellipse;perimeter=ellipsePerimeter;" parent="1" vertex="1"><mxGeometry x="332.88" y="970" width="10" height="10" as="geometry"/></mxCell><mxCell id="KrXppkfDbPsKSOxk7Zb5-144" value="" style="endArrow=none;html=1;rounded=0;exitX=0.5;exitY=0;exitDx=0;exitDy=0;entryX=0.5;entryY=1;entryDx=0;entryDy=0;" parent="1" source="KrXppkfDbPsKSOxk7Zb5-143" target="KrXppkfDbPsKSOxk7Zb5-122" edge="1"><mxGeometry width="50" height="50" relative="1" as="geometry"><mxPoint x="344.13" y="960" as="sourcePoint"/><mxPoint x="338.13" y="930" as="targetPoint"/></mxGeometry></mxCell><mxCell id="KrXppkfDbPsKSOxk7Zb5-145" value="" style="verticalLabelPosition=bottom;shadow=0;dashed=0;align=center;html=1;verticalAlign=top;strokeWidth=1;shape=ellipse;perimeter=ellipsePerimeter;" parent="1" vertex="1"><mxGeometry x="362" y="970" width="10" height="10" as="geometry"/></mxCell><mxCell id="KrXppkfDbPsKSOxk7Zb5-146" value="" style="endArrow=none;html=1;rounded=0;exitX=0.5;exitY=0;exitDx=0;exitDy=0;entryX=0.5;entryY=1;entryDx=0;entryDy=0;" parent="1" source="KrXppkfDbPsKSOxk7Zb5-145" target="KrXppkfDbPsKSOxk7Zb5-124" edge="1"><mxGeometry width="50" height="50" relative="1" as="geometry"><mxPoint x="373.25" y="960" as="sourcePoint"/><mxPoint x="367.25" y="930" as="targetPoint"/></mxGeometry></mxCell><mxCell id="KrXppkfDbPsKSOxk7Zb5-147" value="" style="verticalLabelPosition=bottom;shadow=0;dashed=0;align=center;html=1;verticalAlign=top;strokeWidth=1;shape=ellipse;perimeter=ellipsePerimeter;" parent="1" vertex="1"><mxGeometry x="390.75" y="970" width="10" height="10" as="geometry"/></mxCell><mxCell id="KrXppkfDbPsKSOxk7Zb5-148" value="" style="endArrow=none;html=1;rounded=0;exitX=0.5;exitY=0;exitDx=0;exitDy=0;entryX=0.5;entryY=1;entryDx=0;entryDy=0;" parent="1" source="KrXppkfDbPsKSOxk7Zb5-147" target="KrXppkfDbPsKSOxk7Zb5-126" edge="1"><mxGeometry width="50" height="50" relative="1" as="geometry"><mxPoint x="402" y="960" as="sourcePoint"/><mxPoint x="396" y="930" as="targetPoint"/></mxGeometry></mxCell><mxCell id="KrXppkfDbPsKSOxk7Zb5-149" value="" style="verticalLabelPosition=bottom;shadow=0;dashed=0;align=center;html=1;verticalAlign=top;strokeWidth=1;shape=ellipse;perimeter=ellipsePerimeter;" parent="1" vertex="1"><mxGeometry x="271.5" y="920" width="10" height="10" as="geometry"/></mxCell><mxCell id="KrXppkfDbPsKSOxk7Zb5-150" value="&lt;font style=&quot;font-size: 12px;&quot; face=&quot;Helvetica&quot;&gt;-X1:5&lt;/font&gt;" style="text;html=1;strokeColor=none;fillColor=none;align=center;verticalAlign=middle;whiteSpace=wrap;rounded=0;" parent="1" vertex="1"><mxGeometry x="218.75" y="910" width="62.5" height="30" as="geometry"/></mxCell><mxCell id="KrXppkfDbPsKSOxk7Zb5-156" value="" style="ellipse;whiteSpace=wrap;html=1;aspect=fixed;" parent="1" vertex="1"><mxGeometry x="287.5" y="1040" width="80" height="80" as="geometry"/></mxCell><mxCell id="KrXppkfDbPsKSOxk7Zb5-157" value="-M1" style="text;html=1;strokeColor=none;fillColor=none;align=center;verticalAlign=middle;whiteSpace=wrap;rounded=0;" parent="1" vertex="1"><mxGeometry x="294.38" y="1065" width="60" height="30" as="geometry"/></mxCell><mxCell id="KrXppkfDbPsKSOxk7Zb5-158" value="" style="endArrow=none;html=1;rounded=0;entryX=0.5;entryY=1;entryDx=0;entryDy=0;" parent="1" target="KrXppkfDbPsKSOxk7Zb5-139" edge="1"><mxGeometry width="50" height="50" relative="1" as="geometry"><mxPoint x="276.75" y="1070" as="sourcePoint"/><mxPoint x="253.75" y="1020" as="targetPoint"/></mxGeometry></mxCell><mxCell id="KrXppkfDbPsKSOxk7Zb5-159" value="" style="endArrow=none;html=1;rounded=0;entryX=0.5;entryY=1;entryDx=0;entryDy=0;exitX=0.24;exitY=0.068;exitDx=0;exitDy=0;exitPerimeter=0;" parent="1" source="KrXppkfDbPsKSOxk7Zb5-156" target="KrXppkfDbPsKSOxk7Zb5-141" edge="1"><mxGeometry width="50" height="50" relative="1" as="geometry"><mxPoint x="283.75" y="1040" as="sourcePoint"/><mxPoint x="333.75" y="990" as="targetPoint"/></mxGeometry></mxCell><mxCell id="KrXppkfDbPsKSOxk7Zb5-160" value="" style="endArrow=none;html=1;rounded=0;entryX=0.5;entryY=1;entryDx=0;entryDy=0;exitX=0.386;exitY=0.013;exitDx=0;exitDy=0;exitPerimeter=0;" parent="1" source="KrXppkfDbPsKSOxk7Zb5-156" target="KrXppkfDbPsKSOxk7Zb5-143" edge="1"><mxGeometry width="50" height="50" relative="1" as="geometry"><Array as="points"><mxPoint x="318.75" y="1000"/><mxPoint x="337.75" y="1000"/></Array><mxPoint x="283.75" y="1040" as="sourcePoint"/><mxPoint x="333.75" y="990" as="targetPoint"/></mxGeometry></mxCell><mxCell id="KrXppkfDbPsKSOxk7Zb5-161" value="" style="endArrow=none;html=1;rounded=0;entryX=0.5;entryY=1;entryDx=0;entryDy=0;exitX=0.543;exitY=-0.002;exitDx=0;exitDy=0;exitPerimeter=0;" parent="1" source="KrXppkfDbPsKSOxk7Zb5-156" target="KrXppkfDbPsKSOxk7Zb5-145" edge="1"><mxGeometry width="50" height="50" relative="1" as="geometry"><Array as="points"><mxPoint x="330.75" y="1010"/><mxPoint x="366.75" y="1010"/></Array><mxPoint x="313.75" y="1020" as="sourcePoint"/><mxPoint x="363.75" y="970" as="targetPoint"/></mxGeometry></mxCell><mxCell id="KrXppkfDbPsKSOxk7Zb5-162" value="" style="endArrow=none;html=1;rounded=0;exitX=0.699;exitY=0.043;exitDx=0;exitDy=0;exitPerimeter=0;entryX=0.5;entryY=1;entryDx=0;entryDy=0;" parent="1" source="KrXppkfDbPsKSOxk7Zb5-156" target="KrXppkfDbPsKSOxk7Zb5-147" edge="1"><mxGeometry width="50" height="50" relative="1" as="geometry"><Array as="points"><mxPoint x="343.75" y="1020"/><mxPoint x="395.75" y="1020"/></Array><mxPoint x="313.75" y="1020" as="sourcePoint"/><mxPoint x="363.75" y="970" as="targetPoint"/></mxGeometry></mxCell><mxCell id="KrXppkfDbPsKSOxk7Zb5-163" value="&lt;font style=&quot;font-size: 12px;&quot; face=&quot;Helvetica&quot;&gt;:49&lt;/font&gt;" style="text;html=1;strokeColor=none;fillColor=none;align=center;verticalAlign=middle;whiteSpace=wrap;rounded=0;" parent="1" vertex="1"><mxGeometry x="281.5" y="875" width="23.75" height="20" as="geometry"/></mxCell><mxCell id="KrXppkfDbPsKSOxk7Zb5-164" value="&lt;font style=&quot;font-size: 12px;&quot; face=&quot;Helvetica&quot;&gt;:50&lt;/font&gt;" style="text;html=1;strokeColor=none;fillColor=none;align=center;verticalAlign=middle;whiteSpace=wrap;rounded=0;" parent="1" vertex="1"><mxGeometry x="311.5" y="875" width="22.5" height="20" as="geometry"/></mxCell><mxCell id="KrXppkfDbPsKSOxk7Zb5-165" value="&lt;font style=&quot;font-size: 12px;&quot; face=&quot;Helvetica&quot;&gt;:51&lt;/font&gt;" style="text;html=1;strokeColor=none;fillColor=none;align=center;verticalAlign=middle;whiteSpace=wrap;rounded=0;" parent="1" vertex="1"><mxGeometry x="341.5" y="875" width="25" height="20" as="geometry"/></mxCell><mxCell id="KrXppkfDbPsKSOxk7Zb5-166" value="&lt;font style=&quot;font-size: 12px;&quot; face=&quot;Helvetica&quot;&gt;:52&lt;/font&gt;" style="text;html=1;strokeColor=none;fillColor=none;align=center;verticalAlign=middle;whiteSpace=wrap;rounded=0;" parent="1" vertex="1"><mxGeometry x="371.5" y="875" width="23.75" height="20" as="geometry"/></mxCell><mxCell id="KrXppkfDbPsKSOxk7Zb5-168" value="&lt;font style=&quot;font-size: 12px;&quot; face=&quot;Helvetica&quot;&gt;:21&lt;/font&gt;" style="text;html=1;strokeColor=none;fillColor=none;align=center;verticalAlign=middle;whiteSpace=wrap;rounded=0;" parent="1" vertex="1"><mxGeometry x="252.5" y="875" width="23.75" height="20" as="geometry"/></mxCell><mxCell id="KrXppkfDbPsKSOxk7Zb5-169" value="" style="endArrow=none;html=1;rounded=0;entryX=0.5;entryY=1;entryDx=0;entryDy=0;" parent="1" target="KrXppkfDbPsKSOxk7Zb5-120" edge="1"><mxGeometry width="50" height="50" relative="1" as="geometry"><mxPoint x="306.75" y="930" as="sourcePoint"/><mxPoint x="303.75" y="920" as="targetPoint"/></mxGeometry></mxCell><mxCell id="KrXppkfDbPsKSOxk7Zb5-170" value="" style="pointerEvents=1;verticalLabelPosition=bottom;shadow=0;dashed=0;align=center;html=1;verticalAlign=top;shape=mxgraph.electrical.signal_sources.protective_earth;" parent="1" vertex="1"><mxGeometry x="268.88" y="1070" width="15.25" height="20" as="geometry"/></mxCell><mxCell id="KrXppkfDbPsKSOxk7Zb5-171" value="&lt;font style=&quot;font-size: 12px;&quot; face=&quot;Helvetica&quot;&gt;:2&lt;/font&gt;" style="text;html=1;strokeColor=none;fillColor=none;align=center;verticalAlign=middle;whiteSpace=wrap;rounded=0;" parent="1" vertex="1"><mxGeometry x="608.25" y="954.5" width="13.75" height="20" as="geometry"/></mxCell><mxCell id="KrXppkfDbPsKSOxk7Zb5-172" value="&lt;font style=&quot;font-size: 12px;&quot; face=&quot;Helvetica&quot;&gt;:1&lt;/font&gt;" style="text;html=1;strokeColor=none;fillColor=none;align=center;verticalAlign=middle;whiteSpace=wrap;rounded=0;" parent="1" vertex="1"><mxGeometry x="581.25" y="954.5" width="13.75" height="20" as="geometry"/></mxCell><mxCell id="KrXppkfDbPsKSOxk7Zb5-173" value="&lt;font style=&quot;font-size: 12px;&quot; face=&quot;Helvetica&quot;&gt;:4&lt;/font&gt;" style="text;html=1;strokeColor=none;fillColor=none;align=center;verticalAlign=middle;whiteSpace=wrap;rounded=0;" parent="1" vertex="1"><mxGeometry x="553.12" y="954.5" width="13.75" height="20" as="geometry"/></mxCell><mxCell id="KrXppkfDbPsKSOxk7Zb5-174" value="&lt;font style=&quot;font-size: 12px;&quot; face=&quot;Helvetica&quot;&gt;:5&lt;/font&gt;" style="text;html=1;strokeColor=none;fillColor=none;align=center;verticalAlign=middle;whiteSpace=wrap;rounded=0;" parent="1" vertex="1"><mxGeometry x="521.88" y="954.5" width="13.75" height="20" as="geometry"/></mxCell><mxCell id="KrXppkfDbPsKSOxk7Zb5-175" value="&lt;font style=&quot;font-size: 12px;&quot; face=&quot;Helvetica&quot;&gt;-X7:3&lt;/font&gt;" style="text;html=1;strokeColor=none;fillColor=none;align=center;verticalAlign=middle;whiteSpace=wrap;rounded=0;" parent="1" vertex="1"><mxGeometry x="456.25" y="949.5" width="62.5" height="30" as="geometry"/></mxCell><mxCell id="KrXppkfDbPsKSOxk7Zb5-176" value="&lt;font style=&quot;font-size: 12px;&quot; face=&quot;Helvetica&quot;&gt;-X1:32&lt;/font&gt;" style="text;html=1;strokeColor=none;fillColor=none;align=center;verticalAlign=middle;whiteSpace=wrap;rounded=0;" parent="1" vertex="1"><mxGeometry x="426.25" y="869.5" width="62.5" height="30" as="geometry"/></mxCell><mxCell id="KrXppkfDbPsKSOxk7Zb5-177" value="" style="verticalLabelPosition=bottom;shadow=0;dashed=0;align=center;html=1;verticalAlign=top;strokeWidth=1;shape=ellipse;perimeter=ellipsePerimeter;" parent="1" vertex="1"><mxGeometry x="473.75" y="889.5" width="10" height="10" as="geometry"/></mxCell><mxCell id="KrXppkfDbPsKSOxk7Zb5-178" value="" style="endArrow=none;html=1;rounded=0;exitX=0.5;exitY=0;exitDx=0;exitDy=0;entryX=0.089;entryY=1.007;entryDx=0;entryDy=0;entryPerimeter=0;" parent="1" source="KrXppkfDbPsKSOxk7Zb5-177" edge="1"><mxGeometry width="50" height="50" relative="1" as="geometry"><mxPoint x="485" y="879.5" as="sourcePoint"/><mxPoint x="479" y="830.5" as="targetPoint"/></mxGeometry></mxCell><mxCell id="KrXppkfDbPsKSOxk7Zb5-179" value="" style="verticalLabelPosition=bottom;shadow=0;dashed=0;align=center;html=1;verticalAlign=top;strokeWidth=1;shape=ellipse;perimeter=ellipsePerimeter;" parent="1" vertex="1"><mxGeometry x="502.75" y="889.5" width="10" height="10" as="geometry"/></mxCell><mxCell id="KrXppkfDbPsKSOxk7Zb5-180" value="" style="endArrow=none;html=1;rounded=0;exitX=0.5;exitY=0;exitDx=0;exitDy=0;entryX=0.259;entryY=1.015;entryDx=0;entryDy=0;entryPerimeter=0;" parent="1" source="KrXppkfDbPsKSOxk7Zb5-179" edge="1"><mxGeometry width="50" height="50" relative="1" as="geometry"><mxPoint x="514" y="879.5" as="sourcePoint"/><mxPoint x="508" y="830.5" as="targetPoint"/></mxGeometry></mxCell><mxCell id="KrXppkfDbPsKSOxk7Zb5-181" value="" style="verticalLabelPosition=bottom;shadow=0;dashed=0;align=center;html=1;verticalAlign=top;strokeWidth=1;shape=ellipse;perimeter=ellipsePerimeter;" parent="1" vertex="1"><mxGeometry x="532.75" y="889.5" width="10" height="10" as="geometry"/></mxCell><mxCell id="KrXppkfDbPsKSOxk7Zb5-182" value="" style="endArrow=none;html=1;rounded=0;exitX=0.5;exitY=0;exitDx=0;exitDy=0;entryX=0.429;entryY=1;entryDx=0;entryDy=0;entryPerimeter=0;" parent="1" source="KrXppkfDbPsKSOxk7Zb5-181" edge="1"><mxGeometry width="50" height="50" relative="1" as="geometry"><mxPoint x="544" y="879.5" as="sourcePoint"/><mxPoint x="538" y="830.5" as="targetPoint"/></mxGeometry></mxCell><mxCell id="KrXppkfDbPsKSOxk7Zb5-183" value="" style="verticalLabelPosition=bottom;shadow=0;dashed=0;align=center;html=1;verticalAlign=top;strokeWidth=1;shape=ellipse;perimeter=ellipsePerimeter;" parent="1" vertex="1"><mxGeometry x="564.13" y="889.5" width="10" height="10" as="geometry"/></mxCell><mxCell id="KrXppkfDbPsKSOxk7Zb5-184" value="" style="endArrow=none;html=1;rounded=0;exitX=0.5;exitY=0;exitDx=0;exitDy=0;entryX=0.612;entryY=1.007;entryDx=0;entryDy=0;entryPerimeter=0;" parent="1" source="KrXppkfDbPsKSOxk7Zb5-183" edge="1"><mxGeometry width="50" height="50" relative="1" as="geometry"><mxPoint x="575.38" y="879.5" as="sourcePoint"/><mxPoint x="569" y="830.5" as="targetPoint"/></mxGeometry></mxCell><mxCell id="KrXppkfDbPsKSOxk7Zb5-185" value="" style="verticalLabelPosition=bottom;shadow=0;dashed=0;align=center;html=1;verticalAlign=top;strokeWidth=1;shape=ellipse;perimeter=ellipsePerimeter;" parent="1" vertex="1"><mxGeometry x="593.25" y="889.5" width="10" height="10" as="geometry"/></mxCell><mxCell id="KrXppkfDbPsKSOxk7Zb5-186" value="" style="endArrow=none;html=1;rounded=0;exitX=0.5;exitY=0;exitDx=0;exitDy=0;entryX=0.779;entryY=1;entryDx=0;entryDy=0;entryPerimeter=0;" parent="1" source="KrXppkfDbPsKSOxk7Zb5-185" edge="1"><mxGeometry width="50" height="50" relative="1" as="geometry"><mxPoint x="604.5" y="879.5" as="sourcePoint"/><mxPoint x="598" y="830.5" as="targetPoint"/></mxGeometry></mxCell><mxCell id="KrXppkfDbPsKSOxk7Zb5-187" value="" style="verticalLabelPosition=bottom;shadow=0;dashed=0;align=center;html=1;verticalAlign=top;strokeWidth=1;shape=ellipse;perimeter=ellipsePerimeter;" parent="1" vertex="1"><mxGeometry x="622" y="889.5" width="10" height="10" as="geometry"/></mxCell><mxCell id="KrXppkfDbPsKSOxk7Zb5-188" value="" style="endArrow=none;html=1;rounded=0;exitX=0.5;exitY=0;exitDx=0;exitDy=0;entryX=0.945;entryY=1;entryDx=0;entryDy=0;entryPerimeter=0;" parent="1" source="KrXppkfDbPsKSOxk7Zb5-187" edge="1"><mxGeometry width="50" height="50" relative="1" as="geometry"><mxPoint x="633.25" y="879.5" as="sourcePoint"/><mxPoint x="627" y="830.5" as="targetPoint"/></mxGeometry></mxCell><mxCell id="KrXppkfDbPsKSOxk7Zb5-189" value="" style="verticalLabelPosition=bottom;shadow=0;dashed=0;align=center;html=1;verticalAlign=top;strokeWidth=1;shape=ellipse;perimeter=ellipsePerimeter;" parent="1" vertex="1"><mxGeometry x="502.75" y="969.5" width="10" height="10" as="geometry"/></mxCell><mxCell id="KrXppkfDbPsKSOxk7Zb5-190" value="" style="endArrow=none;html=1;rounded=0;exitX=0.5;exitY=0;exitDx=0;exitDy=0;" parent="1" source="KrXppkfDbPsKSOxk7Zb5-189" edge="1"><mxGeometry width="50" height="50" relative="1" as="geometry"><mxPoint x="514" y="959.5" as="sourcePoint"/><mxPoint x="508" y="929.5" as="targetPoint"/></mxGeometry></mxCell><mxCell id="KrXppkfDbPsKSOxk7Zb5-191" value="" style="verticalLabelPosition=bottom;shadow=0;dashed=0;align=center;html=1;verticalAlign=top;strokeWidth=1;shape=ellipse;perimeter=ellipsePerimeter;" parent="1" vertex="1"><mxGeometry x="532.75" y="969.5" width="10" height="10" as="geometry"/></mxCell><mxCell id="KrXppkfDbPsKSOxk7Zb5-192" value="" style="endArrow=none;html=1;rounded=0;exitX=0.5;exitY=0;exitDx=0;exitDy=0;" parent="1" source="KrXppkfDbPsKSOxk7Zb5-191" edge="1"><mxGeometry width="50" height="50" relative="1" as="geometry"><mxPoint x="544" y="959.5" as="sourcePoint"/><mxPoint x="538" y="929.5" as="targetPoint"/></mxGeometry></mxCell><mxCell id="KrXppkfDbPsKSOxk7Zb5-193" value="" style="verticalLabelPosition=bottom;shadow=0;dashed=0;align=center;html=1;verticalAlign=top;strokeWidth=1;shape=ellipse;perimeter=ellipsePerimeter;" parent="1" vertex="1"><mxGeometry x="564.13" y="969.5" width="10" height="10" as="geometry"/></mxCell><mxCell id="KrXppkfDbPsKSOxk7Zb5-194" value="" style="endArrow=none;html=1;rounded=0;exitX=0.5;exitY=0;exitDx=0;exitDy=0;entryX=0.5;entryY=1;entryDx=0;entryDy=0;" parent="1" source="KrXppkfDbPsKSOxk7Zb5-193" target="KrXppkfDbPsKSOxk7Zb5-183" edge="1"><mxGeometry width="50" height="50" relative="1" as="geometry"><mxPoint x="575.38" y="959.5" as="sourcePoint"/><mxPoint x="569.38" y="929.5" as="targetPoint"/></mxGeometry></mxCell><mxCell id="KrXppkfDbPsKSOxk7Zb5-195" value="" style="verticalLabelPosition=bottom;shadow=0;dashed=0;align=center;html=1;verticalAlign=top;strokeWidth=1;shape=ellipse;perimeter=ellipsePerimeter;" parent="1" vertex="1"><mxGeometry x="593.25" y="969.5" width="10" height="10" as="geometry"/></mxCell><mxCell id="KrXppkfDbPsKSOxk7Zb5-196" value="" style="endArrow=none;html=1;rounded=0;exitX=0.5;exitY=0;exitDx=0;exitDy=0;entryX=0.5;entryY=1;entryDx=0;entryDy=0;" parent="1" source="KrXppkfDbPsKSOxk7Zb5-195" target="KrXppkfDbPsKSOxk7Zb5-185" edge="1"><mxGeometry width="50" height="50" relative="1" as="geometry"><mxPoint x="604.5" y="959.5" as="sourcePoint"/><mxPoint x="598.5" y="929.5" as="targetPoint"/></mxGeometry></mxCell><mxCell id="KrXppkfDbPsKSOxk7Zb5-197" value="" style="verticalLabelPosition=bottom;shadow=0;dashed=0;align=center;html=1;verticalAlign=top;strokeWidth=1;shape=ellipse;perimeter=ellipsePerimeter;" parent="1" vertex="1"><mxGeometry x="622" y="969.5" width="10" height="10" as="geometry"/></mxCell><mxCell id="KrXppkfDbPsKSOxk7Zb5-198" value="" style="endArrow=none;html=1;rounded=0;exitX=0.5;exitY=0;exitDx=0;exitDy=0;entryX=0.5;entryY=1;entryDx=0;entryDy=0;" parent="1" source="KrXppkfDbPsKSOxk7Zb5-197" target="KrXppkfDbPsKSOxk7Zb5-187" edge="1"><mxGeometry width="50" height="50" relative="1" as="geometry"><mxPoint x="633.25" y="959.5" as="sourcePoint"/><mxPoint x="627.25" y="929.5" as="targetPoint"/></mxGeometry></mxCell><mxCell id="KrXppkfDbPsKSOxk7Zb5-199" value="" style="verticalLabelPosition=bottom;shadow=0;dashed=0;align=center;html=1;verticalAlign=top;strokeWidth=1;shape=ellipse;perimeter=ellipsePerimeter;" parent="1" vertex="1"><mxGeometry x="502.75" y="919.5" width="10" height="10" as="geometry"/></mxCell><mxCell id="KrXppkfDbPsKSOxk7Zb5-200" value="&lt;font style=&quot;font-size: 12px;&quot; face=&quot;Helvetica&quot;&gt;-X1:6&lt;/font&gt;" style="text;html=1;strokeColor=none;fillColor=none;align=center;verticalAlign=middle;whiteSpace=wrap;rounded=0;" parent="1" vertex="1"><mxGeometry x="450" y="909.5" width="62.5" height="30" as="geometry"/></mxCell><mxCell id="KrXppkfDbPsKSOxk7Zb5-201" value="" style="ellipse;whiteSpace=wrap;html=1;aspect=fixed;" parent="1" vertex="1"><mxGeometry x="518.75" y="1039.5" width="80" height="80" as="geometry"/></mxCell><mxCell id="KrXppkfDbPsKSOxk7Zb5-202" value="-M2" style="text;html=1;strokeColor=none;fillColor=none;align=center;verticalAlign=middle;whiteSpace=wrap;rounded=0;" parent="1" vertex="1"><mxGeometry x="525.63" y="1064.5" width="60" height="30" as="geometry"/></mxCell><mxCell id="KrXppkfDbPsKSOxk7Zb5-203" value="" style="endArrow=none;html=1;rounded=0;entryX=0.5;entryY=1;entryDx=0;entryDy=0;" parent="1" target="KrXppkfDbPsKSOxk7Zb5-189" edge="1"><mxGeometry width="50" height="50" relative="1" as="geometry"><mxPoint x="508" y="1069.5" as="sourcePoint"/><mxPoint x="485" y="1019.5" as="targetPoint"/></mxGeometry></mxCell><mxCell id="KrXppkfDbPsKSOxk7Zb5-204" value="" style="endArrow=none;html=1;rounded=0;entryX=0.5;entryY=1;entryDx=0;entryDy=0;exitX=0.24;exitY=0.068;exitDx=0;exitDy=0;exitPerimeter=0;" parent="1" source="KrXppkfDbPsKSOxk7Zb5-201" target="KrXppkfDbPsKSOxk7Zb5-191" edge="1"><mxGeometry width="50" height="50" relative="1" as="geometry"><mxPoint x="515" y="1039.5" as="sourcePoint"/><mxPoint x="565" y="989.5" as="targetPoint"/></mxGeometry></mxCell><mxCell id="KrXppkfDbPsKSOxk7Zb5-205" value="" style="endArrow=none;html=1;rounded=0;entryX=0.5;entryY=1;entryDx=0;entryDy=0;exitX=0.386;exitY=0.013;exitDx=0;exitDy=0;exitPerimeter=0;" parent="1" source="KrXppkfDbPsKSOxk7Zb5-201" target="KrXppkfDbPsKSOxk7Zb5-193" edge="1"><mxGeometry width="50" height="50" relative="1" as="geometry"><Array as="points"><mxPoint x="550" y="999.5"/><mxPoint x="569" y="999.5"/></Array><mxPoint x="515" y="1039.5" as="sourcePoint"/><mxPoint x="565" y="989.5" as="targetPoint"/></mxGeometry></mxCell><mxCell id="KrXppkfDbPsKSOxk7Zb5-206" value="" style="endArrow=none;html=1;rounded=0;entryX=0.5;entryY=1;entryDx=0;entryDy=0;exitX=0.543;exitY=-0.002;exitDx=0;exitDy=0;exitPerimeter=0;" parent="1" source="KrXppkfDbPsKSOxk7Zb5-201" target="KrXppkfDbPsKSOxk7Zb5-195" edge="1"><mxGeometry width="50" height="50" relative="1" as="geometry"><Array as="points"><mxPoint x="562" y="1009.5"/><mxPoint x="598" y="1009.5"/></Array><mxPoint x="545" y="1019.5" as="sourcePoint"/><mxPoint x="595" y="969.5" as="targetPoint"/></mxGeometry></mxCell><mxCell id="KrXppkfDbPsKSOxk7Zb5-207" value="" style="endArrow=none;html=1;rounded=0;exitX=0.699;exitY=0.043;exitDx=0;exitDy=0;exitPerimeter=0;entryX=0.5;entryY=1;entryDx=0;entryDy=0;" parent="1" source="KrXppkfDbPsKSOxk7Zb5-201" target="KrXppkfDbPsKSOxk7Zb5-197" edge="1"><mxGeometry width="50" height="50" relative="1" as="geometry"><Array as="points"><mxPoint x="575" y="1019.5"/><mxPoint x="627" y="1019.5"/></Array><mxPoint x="545" y="1019.5" as="sourcePoint"/><mxPoint x="595" y="969.5" as="targetPoint"/></mxGeometry></mxCell><mxCell id="KrXppkfDbPsKSOxk7Zb5-208" value="&lt;font style=&quot;font-size: 12px;&quot; face=&quot;Helvetica&quot;&gt;:53&lt;/font&gt;" style="text;html=1;strokeColor=none;fillColor=none;align=center;verticalAlign=middle;whiteSpace=wrap;rounded=0;" parent="1" vertex="1"><mxGeometry x="512.75" y="874.5" width="23.75" height="20" as="geometry"/></mxCell><mxCell id="KrXppkfDbPsKSOxk7Zb5-209" value="&lt;font style=&quot;font-size: 12px;&quot; face=&quot;Helvetica&quot;&gt;:54&lt;/font&gt;" style="text;html=1;strokeColor=none;fillColor=none;align=center;verticalAlign=middle;whiteSpace=wrap;rounded=0;" parent="1" vertex="1"><mxGeometry x="542.75" y="874.5" width="22.5" height="20" as="geometry"/></mxCell><mxCell id="KrXppkfDbPsKSOxk7Zb5-210" value="&lt;font style=&quot;font-size: 12px;&quot; face=&quot;Helvetica&quot;&gt;:55&lt;/font&gt;" style="text;html=1;strokeColor=none;fillColor=none;align=center;verticalAlign=middle;whiteSpace=wrap;rounded=0;" parent="1" vertex="1"><mxGeometry x="572.75" y="874.5" width="25" height="20" as="geometry"/></mxCell><mxCell id="KrXppkfDbPsKSOxk7Zb5-211" value="&lt;font style=&quot;font-size: 12px;&quot; face=&quot;Helvetica&quot;&gt;:56&lt;/font&gt;" style="text;html=1;strokeColor=none;fillColor=none;align=center;verticalAlign=middle;whiteSpace=wrap;rounded=0;" parent="1" vertex="1"><mxGeometry x="602.75" y="874.5" width="23.75" height="20" as="geometry"/></mxCell><mxCell id="KrXppkfDbPsKSOxk7Zb5-212" value="&lt;font style=&quot;font-size: 12px;&quot; face=&quot;Helvetica&quot;&gt;:22&lt;/font&gt;" style="text;html=1;strokeColor=none;fillColor=none;align=center;verticalAlign=middle;whiteSpace=wrap;rounded=0;" parent="1" vertex="1"><mxGeometry x="483.75" y="874.5" width="23.75" height="20" as="geometry"/></mxCell><mxCell id="KrXppkfDbPsKSOxk7Zb5-213" value="" style="endArrow=none;html=1;rounded=0;entryX=0.5;entryY=1;entryDx=0;entryDy=0;" parent="1" target="KrXppkfDbPsKSOxk7Zb5-181" edge="1"><mxGeometry width="50" height="50" relative="1" as="geometry"><mxPoint x="538" y="929.5" as="sourcePoint"/><mxPoint x="535" y="919.5" as="targetPoint"/></mxGeometry></mxCell><mxCell id="KrXppkfDbPsKSOxk7Zb5-214" value="" style="pointerEvents=1;verticalLabelPosition=bottom;shadow=0;dashed=0;align=center;html=1;verticalAlign=top;shape=mxgraph.electrical.signal_sources.protective_earth;" parent="1" vertex="1"><mxGeometry x="500.13" y="1069.5" width="15.25" height="20" as="geometry"/></mxCell><mxCell id="KrXppkfDbPsKSOxk7Zb5-215" value="&lt;font style=&quot;font-size: 12px;&quot; face=&quot;Helvetica&quot;&gt;:2&lt;/font&gt;" style="text;html=1;strokeColor=none;fillColor=none;align=center;verticalAlign=middle;whiteSpace=wrap;rounded=0;" parent="1" vertex="1"><mxGeometry x="838.87" y="955" width="13.75" height="20" as="geometry"/></mxCell><mxCell id="KrXppkfDbPsKSOxk7Zb5-216" value="&lt;font style=&quot;font-size: 12px;&quot; face=&quot;Helvetica&quot;&gt;:1&lt;/font&gt;" style="text;html=1;strokeColor=none;fillColor=none;align=center;verticalAlign=middle;whiteSpace=wrap;rounded=0;" parent="1" vertex="1"><mxGeometry x="811.87" y="955" width="13.75" height="20" as="geometry"/></mxCell><mxCell id="KrXppkfDbPsKSOxk7Zb5-217" value="&lt;font style=&quot;font-size: 12px;&quot; face=&quot;Helvetica&quot;&gt;:4&lt;/font&gt;" style="text;html=1;strokeColor=none;fillColor=none;align=center;verticalAlign=middle;whiteSpace=wrap;rounded=0;" parent="1" vertex="1"><mxGeometry x="783.74" y="955" width="13.75" height="20" as="geometry"/></mxCell><mxCell id="KrXppkfDbPsKSOxk7Zb5-218" value="&lt;font style=&quot;font-size: 12px;&quot; face=&quot;Helvetica&quot;&gt;:5&lt;/font&gt;" style="text;html=1;strokeColor=none;fillColor=none;align=center;verticalAlign=middle;whiteSpace=wrap;rounded=0;" parent="1" vertex="1"><mxGeometry x="752.5" y="955" width="13.75" height="20" as="geometry"/></mxCell><mxCell id="KrXppkfDbPsKSOxk7Zb5-219" value="&lt;font style=&quot;font-size: 12px;&quot; face=&quot;Helvetica&quot;&gt;-X8:3&lt;/font&gt;" style="text;html=1;strokeColor=none;fillColor=none;align=center;verticalAlign=middle;whiteSpace=wrap;rounded=0;" parent="1" vertex="1"><mxGeometry x="686.87" y="950" width="62.5" height="30" as="geometry"/></mxCell><mxCell id="KrXppkfDbPsKSOxk7Zb5-220" value="&lt;font style=&quot;font-size: 12px;&quot; face=&quot;Helvetica&quot;&gt;-X1:33&lt;/font&gt;" style="text;html=1;strokeColor=none;fillColor=none;align=center;verticalAlign=middle;whiteSpace=wrap;rounded=0;" parent="1" vertex="1"><mxGeometry x="656.87" y="870" width="62.5" height="30" as="geometry"/></mxCell><mxCell id="KrXppkfDbPsKSOxk7Zb5-221" value="" style="verticalLabelPosition=bottom;shadow=0;dashed=0;align=center;html=1;verticalAlign=top;strokeWidth=1;shape=ellipse;perimeter=ellipsePerimeter;" parent="1" vertex="1"><mxGeometry x="704.37" y="890" width="10" height="10" as="geometry"/></mxCell><mxCell id="KrXppkfDbPsKSOxk7Zb5-222" value="" style="endArrow=none;html=1;rounded=0;exitX=0.5;exitY=0;exitDx=0;exitDy=0;entryX=0.089;entryY=1.007;entryDx=0;entryDy=0;entryPerimeter=0;" parent="1" source="KrXppkfDbPsKSOxk7Zb5-221" edge="1"><mxGeometry width="50" height="50" relative="1" as="geometry"><mxPoint x="715.62" y="880" as="sourcePoint"/><mxPoint x="709.62" y="831" as="targetPoint"/></mxGeometry></mxCell><mxCell id="KrXppkfDbPsKSOxk7Zb5-223" value="" style="verticalLabelPosition=bottom;shadow=0;dashed=0;align=center;html=1;verticalAlign=top;strokeWidth=1;shape=ellipse;perimeter=ellipsePerimeter;" parent="1" vertex="1"><mxGeometry x="733.37" y="890" width="10" height="10" as="geometry"/></mxCell><mxCell id="KrXppkfDbPsKSOxk7Zb5-224" value="" style="endArrow=none;html=1;rounded=0;exitX=0.5;exitY=0;exitDx=0;exitDy=0;entryX=0.259;entryY=1.015;entryDx=0;entryDy=0;entryPerimeter=0;" parent="1" source="KrXppkfDbPsKSOxk7Zb5-223" edge="1"><mxGeometry width="50" height="50" relative="1" as="geometry"><mxPoint x="744.62" y="880" as="sourcePoint"/><mxPoint x="738.62" y="831" as="targetPoint"/></mxGeometry></mxCell><mxCell id="KrXppkfDbPsKSOxk7Zb5-225" value="" style="verticalLabelPosition=bottom;shadow=0;dashed=0;align=center;html=1;verticalAlign=top;strokeWidth=1;shape=ellipse;perimeter=ellipsePerimeter;" parent="1" vertex="1"><mxGeometry x="763.37" y="890" width="10" height="10" as="geometry"/></mxCell><mxCell id="KrXppkfDbPsKSOxk7Zb5-226" value="" style="endArrow=none;html=1;rounded=0;exitX=0.5;exitY=0;exitDx=0;exitDy=0;entryX=0.429;entryY=1;entryDx=0;entryDy=0;entryPerimeter=0;" parent="1" source="KrXppkfDbPsKSOxk7Zb5-225" edge="1"><mxGeometry width="50" height="50" relative="1" as="geometry"><mxPoint x="774.62" y="880" as="sourcePoint"/><mxPoint x="768.62" y="831" as="targetPoint"/></mxGeometry></mxCell><mxCell id="KrXppkfDbPsKSOxk7Zb5-227" value="" style="verticalLabelPosition=bottom;shadow=0;dashed=0;align=center;html=1;verticalAlign=top;strokeWidth=1;shape=ellipse;perimeter=ellipsePerimeter;" parent="1" vertex="1"><mxGeometry x="794.75" y="890" width="10" height="10" as="geometry"/></mxCell><mxCell id="KrXppkfDbPsKSOxk7Zb5-228" value="" style="endArrow=none;html=1;rounded=0;exitX=0.5;exitY=0;exitDx=0;exitDy=0;entryX=0.612;entryY=1.007;entryDx=0;entryDy=0;entryPerimeter=0;" parent="1" source="KrXppkfDbPsKSOxk7Zb5-227" edge="1"><mxGeometry width="50" height="50" relative="1" as="geometry"><mxPoint x="806" y="880" as="sourcePoint"/><mxPoint x="799.62" y="831" as="targetPoint"/></mxGeometry></mxCell><mxCell id="KrXppkfDbPsKSOxk7Zb5-229" value="" style="verticalLabelPosition=bottom;shadow=0;dashed=0;align=center;html=1;verticalAlign=top;strokeWidth=1;shape=ellipse;perimeter=ellipsePerimeter;" parent="1" vertex="1"><mxGeometry x="823.87" y="890" width="10" height="10" as="geometry"/></mxCell><mxCell id="KrXppkfDbPsKSOxk7Zb5-230" value="" style="endArrow=none;html=1;rounded=0;exitX=0.5;exitY=0;exitDx=0;exitDy=0;entryX=0.779;entryY=1;entryDx=0;entryDy=0;entryPerimeter=0;" parent="1" source="KrXppkfDbPsKSOxk7Zb5-229" edge="1"><mxGeometry width="50" height="50" relative="1" as="geometry"><mxPoint x="835.12" y="880" as="sourcePoint"/><mxPoint x="828.62" y="831" as="targetPoint"/></mxGeometry></mxCell><mxCell id="KrXppkfDbPsKSOxk7Zb5-231" value="" style="verticalLabelPosition=bottom;shadow=0;dashed=0;align=center;html=1;verticalAlign=top;strokeWidth=1;shape=ellipse;perimeter=ellipsePerimeter;" parent="1" vertex="1"><mxGeometry x="852.62" y="890" width="10" height="10" as="geometry"/></mxCell><mxCell id="KrXppkfDbPsKSOxk7Zb5-232" value="" style="endArrow=none;html=1;rounded=0;exitX=0.5;exitY=0;exitDx=0;exitDy=0;entryX=0.945;entryY=1;entryDx=0;entryDy=0;entryPerimeter=0;" parent="1" source="KrXppkfDbPsKSOxk7Zb5-231" edge="1"><mxGeometry width="50" height="50" relative="1" as="geometry"><mxPoint x="863.87" y="880" as="sourcePoint"/><mxPoint x="857.62" y="831" as="targetPoint"/></mxGeometry></mxCell><mxCell id="KrXppkfDbPsKSOxk7Zb5-233" value="" style="verticalLabelPosition=bottom;shadow=0;dashed=0;align=center;html=1;verticalAlign=top;strokeWidth=1;shape=ellipse;perimeter=ellipsePerimeter;" parent="1" vertex="1"><mxGeometry x="733.37" y="970" width="10" height="10" as="geometry"/></mxCell><mxCell id="KrXppkfDbPsKSOxk7Zb5-234" value="" style="endArrow=none;html=1;rounded=0;exitX=0.5;exitY=0;exitDx=0;exitDy=0;" parent="1" source="KrXppkfDbPsKSOxk7Zb5-233" edge="1"><mxGeometry width="50" height="50" relative="1" as="geometry"><mxPoint x="744.62" y="960" as="sourcePoint"/><mxPoint x="738.62" y="930" as="targetPoint"/></mxGeometry></mxCell><mxCell id="KrXppkfDbPsKSOxk7Zb5-235" value="" style="verticalLabelPosition=bottom;shadow=0;dashed=0;align=center;html=1;verticalAlign=top;strokeWidth=1;shape=ellipse;perimeter=ellipsePerimeter;" parent="1" vertex="1"><mxGeometry x="763.37" y="970" width="10" height="10" as="geometry"/></mxCell><mxCell id="KrXppkfDbPsKSOxk7Zb5-236" value="" style="endArrow=none;html=1;rounded=0;exitX=0.5;exitY=0;exitDx=0;exitDy=0;" parent="1" source="KrXppkfDbPsKSOxk7Zb5-235" edge="1"><mxGeometry width="50" height="50" relative="1" as="geometry"><mxPoint x="774.62" y="960" as="sourcePoint"/><mxPoint x="768.62" y="930" as="targetPoint"/></mxGeometry></mxCell><mxCell id="KrXppkfDbPsKSOxk7Zb5-237" value="" style="verticalLabelPosition=bottom;shadow=0;dashed=0;align=center;html=1;verticalAlign=top;strokeWidth=1;shape=ellipse;perimeter=ellipsePerimeter;" parent="1" vertex="1"><mxGeometry x="794.75" y="970" width="10" height="10" as="geometry"/></mxCell><mxCell id="KrXppkfDbPsKSOxk7Zb5-238" value="" style="endArrow=none;html=1;rounded=0;exitX=0.5;exitY=0;exitDx=0;exitDy=0;entryX=0.5;entryY=1;entryDx=0;entryDy=0;" parent="1" source="KrXppkfDbPsKSOxk7Zb5-237" target="KrXppkfDbPsKSOxk7Zb5-227" edge="1"><mxGeometry width="50" height="50" relative="1" as="geometry"><mxPoint x="806" y="960" as="sourcePoint"/><mxPoint x="800" y="930" as="targetPoint"/></mxGeometry></mxCell><mxCell id="KrXppkfDbPsKSOxk7Zb5-239" value="" style="verticalLabelPosition=bottom;shadow=0;dashed=0;align=center;html=1;verticalAlign=top;strokeWidth=1;shape=ellipse;perimeter=ellipsePerimeter;" parent="1" vertex="1"><mxGeometry x="823.87" y="970" width="10" height="10" as="geometry"/></mxCell><mxCell id="KrXppkfDbPsKSOxk7Zb5-240" value="" style="endArrow=none;html=1;rounded=0;exitX=0.5;exitY=0;exitDx=0;exitDy=0;entryX=0.5;entryY=1;entryDx=0;entryDy=0;" parent="1" source="KrXppkfDbPsKSOxk7Zb5-239" target="KrXppkfDbPsKSOxk7Zb5-229" edge="1"><mxGeometry width="50" height="50" relative="1" as="geometry"><mxPoint x="835.12" y="960" as="sourcePoint"/><mxPoint x="829.12" y="930" as="targetPoint"/></mxGeometry></mxCell><mxCell id="KrXppkfDbPsKSOxk7Zb5-241" value="" style="verticalLabelPosition=bottom;shadow=0;dashed=0;align=center;html=1;verticalAlign=top;strokeWidth=1;shape=ellipse;perimeter=ellipsePerimeter;" parent="1" vertex="1"><mxGeometry x="852.62" y="970" width="10" height="10" as="geometry"/></mxCell><mxCell id="KrXppkfDbPsKSOxk7Zb5-242" value="" style="endArrow=none;html=1;rounded=0;exitX=0.5;exitY=0;exitDx=0;exitDy=0;entryX=0.5;entryY=1;entryDx=0;entryDy=0;" parent="1" source="KrXppkfDbPsKSOxk7Zb5-241" target="KrXppkfDbPsKSOxk7Zb5-231" edge="1"><mxGeometry width="50" height="50" relative="1" as="geometry"><mxPoint x="863.87" y="960" as="sourcePoint"/><mxPoint x="857.87" y="930" as="targetPoint"/></mxGeometry></mxCell><mxCell id="KrXppkfDbPsKSOxk7Zb5-243" value="" style="verticalLabelPosition=bottom;shadow=0;dashed=0;align=center;html=1;verticalAlign=top;strokeWidth=1;shape=ellipse;perimeter=ellipsePerimeter;" parent="1" vertex="1"><mxGeometry x="733.37" y="920" width="10" height="10" as="geometry"/></mxCell><mxCell id="KrXppkfDbPsKSOxk7Zb5-244" value="&lt;font style=&quot;font-size: 12px;&quot; face=&quot;Helvetica&quot;&gt;-X1:7&lt;/font&gt;" style="text;html=1;strokeColor=none;fillColor=none;align=center;verticalAlign=middle;whiteSpace=wrap;rounded=0;" parent="1" vertex="1"><mxGeometry x="680.62" y="910" width="62.5" height="30" as="geometry"/></mxCell><mxCell id="KrXppkfDbPsKSOxk7Zb5-245" value="" style="ellipse;whiteSpace=wrap;html=1;aspect=fixed;" parent="1" vertex="1"><mxGeometry x="749.37" y="1040" width="80" height="80" as="geometry"/></mxCell><mxCell id="KrXppkfDbPsKSOxk7Zb5-246" value="-M3" style="text;html=1;strokeColor=none;fillColor=none;align=center;verticalAlign=middle;whiteSpace=wrap;rounded=0;" parent="1" vertex="1"><mxGeometry x="756.25" y="1065" width="60" height="30" as="geometry"/></mxCell><mxCell id="KrXppkfDbPsKSOxk7Zb5-247" value="" style="endArrow=none;html=1;rounded=0;entryX=0.5;entryY=1;entryDx=0;entryDy=0;" parent="1" target="KrXppkfDbPsKSOxk7Zb5-233" edge="1"><mxGeometry width="50" height="50" relative="1" as="geometry"><mxPoint x="738.62" y="1070" as="sourcePoint"/><mxPoint x="715.62" y="1020" as="targetPoint"/></mxGeometry></mxCell><mxCell id="KrXppkfDbPsKSOxk7Zb5-248" value="" style="endArrow=none;html=1;rounded=0;entryX=0.5;entryY=1;entryDx=0;entryDy=0;exitX=0.24;exitY=0.068;exitDx=0;exitDy=0;exitPerimeter=0;" parent="1" source="KrXppkfDbPsKSOxk7Zb5-245" target="KrXppkfDbPsKSOxk7Zb5-235" edge="1"><mxGeometry width="50" height="50" relative="1" as="geometry"><mxPoint x="745.62" y="1040" as="sourcePoint"/><mxPoint x="795.62" y="990" as="targetPoint"/></mxGeometry></mxCell><mxCell id="KrXppkfDbPsKSOxk7Zb5-249" value="" style="endArrow=none;html=1;rounded=0;entryX=0.5;entryY=1;entryDx=0;entryDy=0;exitX=0.386;exitY=0.013;exitDx=0;exitDy=0;exitPerimeter=0;" parent="1" source="KrXppkfDbPsKSOxk7Zb5-245" target="KrXppkfDbPsKSOxk7Zb5-237" edge="1"><mxGeometry width="50" height="50" relative="1" as="geometry"><Array as="points"><mxPoint x="780.62" y="1000"/><mxPoint x="799.62" y="1000"/></Array><mxPoint x="745.62" y="1040" as="sourcePoint"/><mxPoint x="795.62" y="990" as="targetPoint"/></mxGeometry></mxCell><mxCell id="KrXppkfDbPsKSOxk7Zb5-250" value="" style="endArrow=none;html=1;rounded=0;entryX=0.5;entryY=1;entryDx=0;entryDy=0;exitX=0.543;exitY=-0.002;exitDx=0;exitDy=0;exitPerimeter=0;" parent="1" source="KrXppkfDbPsKSOxk7Zb5-245" target="KrXppkfDbPsKSOxk7Zb5-239" edge="1"><mxGeometry width="50" height="50" relative="1" as="geometry"><Array as="points"><mxPoint x="792.62" y="1010"/><mxPoint x="828.62" y="1010"/></Array><mxPoint x="775.62" y="1020" as="sourcePoint"/><mxPoint x="825.62" y="970" as="targetPoint"/></mxGeometry></mxCell><mxCell id="KrXppkfDbPsKSOxk7Zb5-251" value="" style="endArrow=none;html=1;rounded=0;exitX=0.699;exitY=0.043;exitDx=0;exitDy=0;exitPerimeter=0;entryX=0.5;entryY=1;entryDx=0;entryDy=0;" parent="1" source="KrXppkfDbPsKSOxk7Zb5-245" target="KrXppkfDbPsKSOxk7Zb5-241" edge="1"><mxGeometry width="50" height="50" relative="1" as="geometry"><Array as="points"><mxPoint x="805.62" y="1020"/><mxPoint x="857.62" y="1020"/></Array><mxPoint x="775.62" y="1020" as="sourcePoint"/><mxPoint x="825.62" y="970" as="targetPoint"/></mxGeometry></mxCell><mxCell id="KrXppkfDbPsKSOxk7Zb5-252" value="&lt;font style=&quot;font-size: 12px;&quot; face=&quot;Helvetica&quot;&gt;:57&lt;/font&gt;" style="text;html=1;strokeColor=none;fillColor=none;align=center;verticalAlign=middle;whiteSpace=wrap;rounded=0;" parent="1" vertex="1"><mxGeometry x="743.37" y="875" width="23.75" height="20" as="geometry"/></mxCell><mxCell id="KrXppkfDbPsKSOxk7Zb5-253" value="&lt;font style=&quot;font-size: 12px;&quot; face=&quot;Helvetica&quot;&gt;:58&lt;/font&gt;" style="text;html=1;strokeColor=none;fillColor=none;align=center;verticalAlign=middle;whiteSpace=wrap;rounded=0;" parent="1" vertex="1"><mxGeometry x="773.37" y="875" width="22.5" height="20" as="geometry"/></mxCell><mxCell id="KrXppkfDbPsKSOxk7Zb5-254" value="&lt;font style=&quot;font-size: 12px;&quot; face=&quot;Helvetica&quot;&gt;:59&lt;/font&gt;" style="text;html=1;strokeColor=none;fillColor=none;align=center;verticalAlign=middle;whiteSpace=wrap;rounded=0;" parent="1" vertex="1"><mxGeometry x="803.37" y="875" width="25" height="20" as="geometry"/></mxCell><mxCell id="KrXppkfDbPsKSOxk7Zb5-255" value="&lt;font style=&quot;font-size: 12px;&quot; face=&quot;Helvetica&quot;&gt;:60&lt;/font&gt;" style="text;html=1;strokeColor=none;fillColor=none;align=center;verticalAlign=middle;whiteSpace=wrap;rounded=0;" parent="1" vertex="1"><mxGeometry x="833.37" y="875" width="23.75" height="20" as="geometry"/></mxCell><mxCell id="KrXppkfDbPsKSOxk7Zb5-256" value="&lt;font style=&quot;font-size: 12px;&quot; face=&quot;Helvetica&quot;&gt;:23&lt;/font&gt;" style="text;html=1;strokeColor=none;fillColor=none;align=center;verticalAlign=middle;whiteSpace=wrap;rounded=0;" parent="1" vertex="1"><mxGeometry x="714.37" y="875" width="23.75" height="20" as="geometry"/></mxCell><mxCell id="KrXppkfDbPsKSOxk7Zb5-257" value="" style="endArrow=none;html=1;rounded=0;entryX=0.5;entryY=1;entryDx=0;entryDy=0;" parent="1" target="KrXppkfDbPsKSOxk7Zb5-225" edge="1"><mxGeometry width="50" height="50" relative="1" as="geometry"><mxPoint x="768.62" y="930" as="sourcePoint"/><mxPoint x="765.62" y="920" as="targetPoint"/></mxGeometry></mxCell><mxCell id="KrXppkfDbPsKSOxk7Zb5-258" value="" style="pointerEvents=1;verticalLabelPosition=bottom;shadow=0;dashed=0;align=center;html=1;verticalAlign=top;shape=mxgraph.electrical.signal_sources.protective_earth;" parent="1" vertex="1"><mxGeometry x="730.75" y="1070" width="15.25" height="20" as="geometry"/></mxCell><mxCell id="KrXppkfDbPsKSOxk7Zb5-259" value="" style="endArrow=classic;html=1;rounded=0;exitX=0.311;exitY=-0.027;exitDx=0;exitDy=0;exitPerimeter=0;" parent="1" source="KrXppkfDbPsKSOxk7Zb5-16" edge="1"><mxGeometry width="50" height="50" relative="1" as="geometry"><Array as="points"><mxPoint x="450" y="140"/><mxPoint x="650" y="140"/></Array><mxPoint x="553.75" y="140" as="sourcePoint"/><mxPoint x="640" y="140" as="targetPoint"/></mxGeometry></mxCell><mxCell id="2" value="" style="verticalLabelPosition=bottom;shadow=0;dashed=0;align=center;html=1;verticalAlign=top;strokeWidth=1;shape=ellipse;perimeter=ellipsePerimeter;" parent="1" vertex="1"><mxGeometry x="1510" y="343" width="10" height="10" as="geometry"/></mxCell><mxCell id="3" value="" style="verticalLabelPosition=bottom;shadow=0;dashed=0;align=center;html=1;verticalAlign=top;strokeWidth=1;shape=ellipse;perimeter=ellipsePerimeter;" parent="1" vertex="1"><mxGeometry x="1510" y="363" width="10" height="10" as="geometry"/></mxCell><mxCell id="4" value="" style="verticalLabelPosition=bottom;shadow=0;dashed=0;align=center;html=1;verticalAlign=top;strokeWidth=1;shape=ellipse;perimeter=ellipsePerimeter;" parent="1" vertex="1"><mxGeometry x="1510" y="383" width="10" height="10" as="geometry"/></mxCell><mxCell id="5" value="" style="verticalLabelPosition=bottom;shadow=0;dashed=0;align=center;html=1;verticalAlign=top;strokeWidth=1;shape=ellipse;perimeter=ellipsePerimeter;" parent="1" vertex="1"><mxGeometry x="1510" y="403" width="10" height="10" as="geometry"/></mxCell><mxCell id="6" value="" style="verticalLabelPosition=bottom;shadow=0;dashed=0;align=center;html=1;verticalAlign=top;strokeWidth=1;shape=ellipse;perimeter=ellipsePerimeter;" parent="1" vertex="1"><mxGeometry x="1510" y="423" width="10" height="10" as="geometry"/></mxCell><mxCell id="7" value="" style="verticalLabelPosition=bottom;shadow=0;dashed=0;align=center;html=1;verticalAlign=top;strokeWidth=1;shape=ellipse;perimeter=ellipsePerimeter;" parent="1" vertex="1"><mxGeometry x="1510" y="443" width="10" height="10" as="geometry"/></mxCell><mxCell id="8" value="" style="verticalLabelPosition=bottom;shadow=0;dashed=0;align=center;html=1;verticalAlign=top;strokeWidth=1;shape=ellipse;perimeter=ellipsePerimeter;" parent="1" vertex="1"><mxGeometry x="1510" y="463" width="10" height="10" as="geometry"/></mxCell><mxCell id="30" value="" style="endArrow=none;html=1;entryX=0;entryY=0.5;entryDx=0;entryDy=0;" parent="1" target="2" edge="1"><mxGeometry width="50" height="50" relative="1" as="geometry"><mxPoint x="1410" y="348" as="sourcePoint"/><mxPoint x="1450" y="390" as="targetPoint"/></mxGeometry></mxCell><mxCell id="31" value="" style="endArrow=none;html=1;entryX=0;entryY=0.5;entryDx=0;entryDy=0;exitX=1.005;exitY=0.265;exitDx=0;exitDy=0;exitPerimeter=0;" parent="1" target="3" edge="1"><mxGeometry width="50" height="50" relative="1" as="geometry"><mxPoint x="1410.1999999999998" y="368.275" as="sourcePoint"/><mxPoint x="1490" y="390" as="targetPoint"/></mxGeometry></mxCell><mxCell id="32" value="" style="endArrow=none;html=1;entryX=0;entryY=0.5;entryDx=0;entryDy=0;exitX=0.995;exitY=0.411;exitDx=0;exitDy=0;exitPerimeter=0;" parent="1" target="4" edge="1"><mxGeometry width="50" height="50" relative="1" as="geometry"><mxPoint x="1409.8" y="387.985" as="sourcePoint"/><mxPoint x="1490" y="360" as="targetPoint"/></mxGeometry></mxCell><mxCell id="33" value="" style="endArrow=none;html=1;entryX=0;entryY=0.5;entryDx=0;entryDy=0;exitX=0.994;exitY=0.488;exitDx=0;exitDy=0;exitPerimeter=0;" parent="1" source="KrXppkfDbPsKSOxk7Zb5-45" target="5" edge="1"><mxGeometry width="50" height="50" relative="1" as="geometry"><mxPoint x="1412.48" y="405.94000000000005" as="sourcePoint"/><mxPoint x="1490" y="400" as="targetPoint"/></mxGeometry></mxCell><mxCell id="34" value="" style="endArrow=none;html=1;entryX=0;entryY=0.5;entryDx=0;entryDy=0;exitX=0.996;exitY=0.705;exitDx=0;exitDy=0;exitPerimeter=0;" parent="1" target="6" edge="1"><mxGeometry width="50" height="50" relative="1" as="geometry"><mxPoint x="1409.84" y="427.67499999999995" as="sourcePoint"/><mxPoint x="1490" y="400" as="targetPoint"/></mxGeometry></mxCell><mxCell id="35" value="" style="endArrow=none;html=1;entryX=0;entryY=0.5;entryDx=0;entryDy=0;exitX=0.992;exitY=0.855;exitDx=0;exitDy=0;exitPerimeter=0;" parent="1" target="7" edge="1"><mxGeometry width="50" height="50" relative="1" as="geometry"><mxPoint x="1409.6799999999998" y="447.92499999999995" as="sourcePoint"/><mxPoint x="1490" y="400" as="targetPoint"/></mxGeometry></mxCell><mxCell id="37" value="" style="endArrow=none;html=1;entryX=0;entryY=0.5;entryDx=0;entryDy=0;exitX=0.999;exitY=0.821;exitDx=0;exitDy=0;exitPerimeter=0;" parent="1" source="KrXppkfDbPsKSOxk7Zb5-45" target="8" edge="1"><mxGeometry width="50" height="50" relative="1" as="geometry"><mxPoint x="1440" y="490" as="sourcePoint"/><mxPoint x="1490" y="440" as="targetPoint"/></mxGeometry></mxCell><mxCell id="38" value="&lt;font style=&quot;font-size: 12px;&quot; face=&quot;Helvetica&quot;&gt;-X5:8&lt;/font&gt;" style="text;html=1;strokeColor=none;fillColor=none;align=right;verticalAlign=middle;whiteSpace=wrap;rounded=0;" parent="1" vertex="1"><mxGeometry x="1540" y="332" width="43.75" height="20" as="geometry"/></mxCell><mxCell id="39" value="&lt;font style=&quot;font-size: 12px;&quot; face=&quot;Helvetica&quot;&gt;-X5:7&lt;/font&gt;" style="text;html=1;strokeColor=none;fillColor=none;align=right;verticalAlign=middle;whiteSpace=wrap;rounded=0;" parent="1" vertex="1"><mxGeometry x="1540" y="352" width="43.75" height="20" as="geometry"/></mxCell><mxCell id="40" value="&lt;font style=&quot;font-size: 12px;&quot; face=&quot;Helvetica&quot;&gt;-X5:4&lt;/font&gt;" style="text;html=1;strokeColor=none;fillColor=none;align=right;verticalAlign=middle;whiteSpace=wrap;rounded=0;" parent="1" vertex="1"><mxGeometry x="1540" y="372" width="43.75" height="20" as="geometry"/></mxCell><mxCell id="41" value="&lt;font style=&quot;font-size: 12px;&quot; face=&quot;Helvetica&quot;&gt;-X5:3&lt;/font&gt;" style="text;html=1;strokeColor=none;fillColor=none;align=right;verticalAlign=middle;whiteSpace=wrap;rounded=0;" parent="1" vertex="1"><mxGeometry x="1540" y="392" width="43.75" height="20" as="geometry"/></mxCell><mxCell id="42" value="&lt;font style=&quot;font-size: 12px;&quot; face=&quot;Helvetica&quot;&gt;-X5:2&lt;/font&gt;" style="text;html=1;strokeColor=none;fillColor=none;align=right;verticalAlign=middle;whiteSpace=wrap;rounded=0;" parent="1" vertex="1"><mxGeometry x="1540" y="412" width="43.75" height="20" as="geometry"/></mxCell><mxCell id="43" value="&lt;font style=&quot;font-size: 12px;&quot; face=&quot;Helvetica&quot;&gt;-X5:1&lt;/font&gt;" style="text;html=1;strokeColor=none;fillColor=none;align=right;verticalAlign=middle;whiteSpace=wrap;rounded=0;" parent="1" vertex="1"><mxGeometry x="1540" y="432" width="43.75" height="20" as="geometry"/></mxCell><mxCell id="44" value="&lt;font style=&quot;font-size: 12px;&quot; face=&quot;Helvetica&quot;&gt;-X5:6&lt;/font&gt;" style="text;html=1;strokeColor=none;fillColor=none;align=right;verticalAlign=middle;whiteSpace=wrap;rounded=0;" parent="1" vertex="1"><mxGeometry x="1540" y="452" width="43.75" height="20" as="geometry"/></mxCell><mxCell id="45" value="" style="verticalLabelPosition=bottom;shadow=0;dashed=0;align=center;html=1;verticalAlign=top;strokeWidth=1;shape=ellipse;perimeter=ellipsePerimeter;" parent="1" vertex="1"><mxGeometry x="1583.75" y="343" width="10" height="10" as="geometry"/></mxCell><mxCell id="46" value="" style="verticalLabelPosition=bottom;shadow=0;dashed=0;align=center;html=1;verticalAlign=top;strokeWidth=1;shape=ellipse;perimeter=ellipsePerimeter;" parent="1" vertex="1"><mxGeometry x="1583.75" y="363" width="10" height="10" as="geometry"/></mxCell><mxCell id="47" value="" style="verticalLabelPosition=bottom;shadow=0;dashed=0;align=center;html=1;verticalAlign=top;strokeWidth=1;shape=ellipse;perimeter=ellipsePerimeter;" parent="1" vertex="1"><mxGeometry x="1583.75" y="383" width="10" height="10" as="geometry"/></mxCell><mxCell id="48" value="" style="verticalLabelPosition=bottom;shadow=0;dashed=0;align=center;html=1;verticalAlign=top;strokeWidth=1;shape=ellipse;perimeter=ellipsePerimeter;" parent="1" vertex="1"><mxGeometry x="1583.75" y="403" width="10" height="10" as="geometry"/></mxCell><mxCell id="49" value="" style="verticalLabelPosition=bottom;shadow=0;dashed=0;align=center;html=1;verticalAlign=top;strokeWidth=1;shape=ellipse;perimeter=ellipsePerimeter;" parent="1" vertex="1"><mxGeometry x="1583.75" y="423" width="10" height="10" as="geometry"/></mxCell><mxCell id="50" value="" style="verticalLabelPosition=bottom;shadow=0;dashed=0;align=center;html=1;verticalAlign=top;strokeWidth=1;shape=ellipse;perimeter=ellipsePerimeter;" parent="1" vertex="1"><mxGeometry x="1583.75" y="443" width="10" height="10" as="geometry"/></mxCell><mxCell id="51" value="" style="verticalLabelPosition=bottom;shadow=0;dashed=0;align=center;html=1;verticalAlign=top;strokeWidth=1;shape=ellipse;perimeter=ellipsePerimeter;" parent="1" vertex="1"><mxGeometry x="1583.75" y="463" width="10" height="10" as="geometry"/></mxCell><mxCell id="53" value="X-" style="text;html=1;strokeColor=none;fillColor=none;align=center;verticalAlign=middle;whiteSpace=wrap;rounded=0;" parent="1" vertex="1"><mxGeometry x="1376.25" y="339.5" width="33.75" height="17" as="geometry"/></mxCell><mxCell id="54" value="X+" style="text;html=1;strokeColor=none;fillColor=none;align=center;verticalAlign=middle;whiteSpace=wrap;rounded=0;" parent="1" vertex="1"><mxGeometry x="1376.25" y="359.5" width="33.75" height="17" as="geometry"/></mxCell><mxCell id="55" value="Y-" style="text;html=1;strokeColor=none;fillColor=none;align=center;verticalAlign=middle;whiteSpace=wrap;rounded=0;" parent="1" vertex="1"><mxGeometry x="1376.25" y="379.5" width="33.75" height="17" as="geometry"/></mxCell><mxCell id="56" value="Y+" style="text;html=1;strokeColor=none;fillColor=none;align=center;verticalAlign=middle;whiteSpace=wrap;rounded=0;" parent="1" vertex="1"><mxGeometry x="1376.25" y="399.5" width="33.75" height="17" as="geometry"/></mxCell><mxCell id="57" value="Z-" style="text;html=1;strokeColor=none;fillColor=none;align=center;verticalAlign=middle;whiteSpace=wrap;rounded=0;" parent="1" vertex="1"><mxGeometry x="1376.25" y="419.5" width="33.75" height="17" as="geometry"/></mxCell><mxCell id="58" value="Z+" style="text;html=1;strokeColor=none;fillColor=none;align=center;verticalAlign=middle;whiteSpace=wrap;rounded=0;" parent="1" vertex="1"><mxGeometry x="1376.25" y="439.5" width="33.75" height="17" as="geometry"/></mxCell><mxCell id="59" value="+12 V" style="text;html=1;strokeColor=none;fillColor=none;align=center;verticalAlign=middle;whiteSpace=wrap;rounded=0;" parent="1" vertex="1"><mxGeometry x="1370" y="459.5" width="40" height="17" as="geometry"/></mxCell><mxCell id="60" value="GND" style="text;html=1;strokeColor=none;fillColor=none;align=center;verticalAlign=middle;whiteSpace=wrap;rounded=0;" parent="1" vertex="1"><mxGeometry x="1376.25" y="480" width="33.75" height="17" as="geometry"/></mxCell><mxCell id="62" value="&lt;font style=&quot;font-size: 12px;&quot; face=&quot;Helvetica&quot;&gt;-X5:5&lt;/font&gt;" style="text;html=1;strokeColor=none;fillColor=none;align=right;verticalAlign=middle;whiteSpace=wrap;rounded=0;" parent="1" vertex="1"><mxGeometry x="1540" y="471" width="43.75" height="20" as="geometry"/></mxCell><mxCell id="63" value="" style="verticalLabelPosition=bottom;shadow=0;dashed=0;align=center;html=1;verticalAlign=top;strokeWidth=1;shape=ellipse;perimeter=ellipsePerimeter;" parent="1" vertex="1"><mxGeometry x="1583.75" y="482" width="10" height="10" as="geometry"/></mxCell><mxCell id="64" value="&lt;font style=&quot;font-size: 12px;&quot; face=&quot;Helvetica&quot;&gt;-X1:30&lt;/font&gt;" style="text;html=1;strokeColor=none;fillColor=none;align=center;verticalAlign=middle;whiteSpace=wrap;rounded=0;" parent="1" vertex="1"><mxGeometry x="1466.25" y="476" width="43.75" height="20" as="geometry"/></mxCell><mxCell id="65" value="" style="verticalLabelPosition=bottom;shadow=0;dashed=0;align=center;html=1;verticalAlign=top;strokeWidth=1;shape=ellipse;perimeter=ellipsePerimeter;" parent="1" vertex="1"><mxGeometry x="1510" y="482" width="10" height="10" as="geometry"/></mxCell><mxCell id="66" value="" style="endArrow=none;html=1;entryX=0;entryY=0.5;entryDx=0;entryDy=0;exitX=1;exitY=0.5;exitDx=0;exitDy=0;" parent="1" source="2" target="45" edge="1"><mxGeometry width="50" height="50" relative="1" as="geometry"><mxPoint x="1510" y="440" as="sourcePoint"/><mxPoint x="1560" y="390" as="targetPoint"/></mxGeometry></mxCell><mxCell id="67" value="" style="endArrow=none;html=1;entryX=0;entryY=0.5;entryDx=0;entryDy=0;exitX=1;exitY=0.5;exitDx=0;exitDy=0;" parent="1" source="3" target="46" edge="1"><mxGeometry width="50" height="50" relative="1" as="geometry"><mxPoint x="1530" y="410" as="sourcePoint"/><mxPoint x="1580" y="360" as="targetPoint"/></mxGeometry></mxCell><mxCell id="68" value="" style="endArrow=none;html=1;entryX=0;entryY=0.5;entryDx=0;entryDy=0;exitX=1;exitY=0.5;exitDx=0;exitDy=0;" parent="1" source="4" target="47" edge="1"><mxGeometry width="50" height="50" relative="1" as="geometry"><mxPoint x="1530" y="410" as="sourcePoint"/><mxPoint x="1580" y="360" as="targetPoint"/></mxGeometry></mxCell><mxCell id="69" value="" style="endArrow=none;html=1;entryX=0;entryY=0.5;entryDx=0;entryDy=0;exitX=1;exitY=0.5;exitDx=0;exitDy=0;" parent="1" source="5" target="48" edge="1"><mxGeometry width="50" height="50" relative="1" as="geometry"><mxPoint x="1530" y="470" as="sourcePoint"/><mxPoint x="1580" y="420" as="targetPoint"/></mxGeometry></mxCell><mxCell id="70" value="" style="endArrow=none;html=1;entryX=0;entryY=0.5;entryDx=0;entryDy=0;exitX=1;exitY=0.5;exitDx=0;exitDy=0;" parent="1" source="6" target="49" edge="1"><mxGeometry width="50" height="50" relative="1" as="geometry"><mxPoint x="1530" y="470" as="sourcePoint"/><mxPoint x="1580" y="420" as="targetPoint"/></mxGeometry></mxCell><mxCell id="71" value="" style="endArrow=none;html=1;entryX=0;entryY=0.5;entryDx=0;entryDy=0;exitX=1;exitY=0.5;exitDx=0;exitDy=0;" parent="1" source="7" target="50" edge="1"><mxGeometry width="50" height="50" relative="1" as="geometry"><mxPoint x="1530" y="470" as="sourcePoint"/><mxPoint x="1580" y="420" as="targetPoint"/></mxGeometry></mxCell><mxCell id="72" value="" style="endArrow=none;html=1;entryX=0;entryY=0.5;entryDx=0;entryDy=0;exitX=1;exitY=0.5;exitDx=0;exitDy=0;" parent="1" source="8" target="51" edge="1"><mxGeometry width="50" height="50" relative="1" as="geometry"><mxPoint x="1530" y="470" as="sourcePoint"/><mxPoint x="1580" y="420" as="targetPoint"/></mxGeometry></mxCell><mxCell id="73" value="" style="endArrow=none;html=1;entryX=0;entryY=0.5;entryDx=0;entryDy=0;exitX=1;exitY=0.5;exitDx=0;exitDy=0;" parent="1" source="65" target="63" edge="1"><mxGeometry width="50" height="50" relative="1" as="geometry"><mxPoint x="1530" y="470" as="sourcePoint"/><mxPoint x="1580" y="420" as="targetPoint"/></mxGeometry></mxCell><mxCell id="74" value="+&amp;nbsp; &amp;nbsp; &amp;nbsp; &amp;nbsp; &amp;nbsp; &amp;nbsp; -&lt;br&gt;Main Power" style="text;html=1;strokeColor=none;fillColor=none;align=center;verticalAlign=middle;whiteSpace=wrap;rounded=0;" parent="1" vertex="1"><mxGeometry x="292" y="250" width="70" height="30" as="geometry"/></mxCell><mxCell id="75" value="&lt;font style=&quot;font-size: 12px;&quot; face=&quot;Helvetica&quot;&gt;-X1:19&lt;/font&gt;" style="text;html=1;strokeColor=none;fillColor=none;align=center;verticalAlign=middle;whiteSpace=wrap;rounded=0;" parent="1" vertex="1"><mxGeometry x="273.12" y="126" width="62.5" height="30" as="geometry"/></mxCell><mxCell id="76" value="" style="verticalLabelPosition=bottom;shadow=0;dashed=0;align=center;html=1;verticalAlign=top;strokeWidth=1;shape=ellipse;perimeter=ellipsePerimeter;" parent="1" vertex="1"><mxGeometry x="301.5" y="150" width="10" height="10" as="geometry"/></mxCell><mxCell id="77" value="" style="verticalLabelPosition=bottom;shadow=0;dashed=0;align=center;html=1;verticalAlign=top;strokeWidth=1;shape=ellipse;perimeter=ellipsePerimeter;" parent="1" vertex="1"><mxGeometry x="345.12" y="150" width="10" height="10" as="geometry"/></mxCell><mxCell id="78" value="&lt;font style=&quot;font-size: 12px;&quot; face=&quot;Helvetica&quot;&gt;:30&lt;/font&gt;" style="text;html=1;strokeColor=none;fillColor=none;align=center;verticalAlign=middle;whiteSpace=wrap;rounded=0;" parent="1" vertex="1"><mxGeometry x="338.25" y="131" width="23.75" height="20" as="geometry"/></mxCell><mxCell id="81" value="" style="endArrow=none;html=1;entryX=0.5;entryY=1;entryDx=0;entryDy=0;exitX=0.07;exitY=0;exitDx=0;exitDy=0;exitPerimeter=0;" parent="1" source="KrXppkfDbPsKSOxk7Zb5-1" target="76" edge="1"><mxGeometry width="50" height="50" relative="1" as="geometry"><mxPoint x="310" y="270" as="sourcePoint"/><mxPoint x="360" y="220" as="targetPoint"/></mxGeometry></mxCell><mxCell id="82" value="" style="endArrow=none;html=1;entryX=0.5;entryY=1;entryDx=0;entryDy=0;exitX=0.106;exitY=-0.001;exitDx=0;exitDy=0;exitPerimeter=0;" parent="1" source="KrXppkfDbPsKSOxk7Zb5-1" target="77" edge="1"><mxGeometry width="50" height="50" relative="1" as="geometry"><mxPoint x="310" y="250" as="sourcePoint"/><mxPoint x="350" y="170" as="targetPoint"/></mxGeometry></mxCell><mxCell id="83" value="&lt;font style=&quot;font-size: 12px;&quot; face=&quot;Helvetica&quot;&gt;0 V&lt;/font&gt;" style="text;html=1;strokeColor=none;fillColor=none;align=center;verticalAlign=middle;whiteSpace=wrap;rounded=0;" parent="1" vertex="1"><mxGeometry x="1466.25" y="490" width="43.75" height="20" as="geometry"/></mxCell><mxCell id="84" value="-K3" style="text;html=1;strokeColor=none;fillColor=none;align=center;verticalAlign=middle;whiteSpace=wrap;rounded=0;" parent="1" vertex="1"><mxGeometry x="173.75" y="250" width="50" height="30" as="geometry"/></mxCell></root></mxGraphModel></diagram></mxfile>